<svg width="35" height="35" viewBox="0 0 35 35" fill="none" xmlns="http://www.w3.org/2000/svg">
<path fill-rule="evenodd" clip-rule="evenodd" d="M0.89029 0.00774165L28.7602 0L29.0544 0.193541C29.2092 0.301924 29.4105 0.526432 29.4957 0.696748C29.6505 0.998673 29.6505 1.16125 29.6505 13.4705L31.9266 13.486C34.102 13.5092 34.2181 13.5169 34.4271 13.6718C34.5432 13.7569 34.7213 13.9505 35 14.3608V34.102L34.8142 34.3729C34.7213 34.52 34.52 34.7213 34.102 35L0.967706 34.9923L0.65804 34.8142C0.487724 34.7136 0.270958 34.5045 0 34.0246V17.5116C0 1.16125 0 1.00641 0.154833 0.696748C0.239991 0.526432 0.441274 0.301924 0.603849 0.201283L0.89029 0.00774165ZM0.859323 1.1148C0.805132 1.23866 0.774165 1.7109 0.774165 2.35346V3.39858C3.24375 3.39858 3.62309 3.42181 3.69277 3.49148C3.74696 3.55342 3.78567 3.70051 3.77018 3.82438C3.7547 3.97921 3.68503 4.08759 3.56116 4.15727C3.42181 4.2192 2.94957 4.25017 2.06702 4.25017H0.766423L0.774165 6.80491C2.87215 6.80491 3.54568 6.84362 3.63858 6.88233C3.74696 6.94426 3.79341 7.03716 3.79341 7.2307C3.79341 7.42424 3.74696 7.52488 3.63858 7.57908C3.54568 7.62553 2.87215 7.65649 2.12895 7.65649H0.774165V10.2112C3.29794 10.2112 3.57664 10.2345 3.67728 10.3274C3.73922 10.397 3.79341 10.5519 3.79341 10.6757C3.79341 10.8306 3.7418 10.9338 3.63858 10.9854C3.54568 11.0318 2.87215 11.0628 2.12895 11.0628H0.774165V13.695C3.22053 13.695 3.62309 13.7182 3.69277 13.7956C3.74696 13.8498 3.79341 13.9814 3.79341 14.0821C3.79341 14.1904 3.74696 14.3221 3.70051 14.3762C3.63083 14.4459 3.22053 14.4691 2.19089 14.4691H0.766423V17.1013C3.22053 17.1013 3.62309 17.1245 3.69277 17.2019C3.74696 17.2561 3.79341 17.3877 3.79341 17.4884C3.79341 17.5968 3.74696 17.7284 3.70051 17.7826C3.63083 17.8522 3.22053 17.8755 2.19089 17.8755H0.774165V20.5076C3.22053 20.5076 3.62309 20.5309 3.69277 20.6083C3.74696 20.6625 3.79341 20.8018 3.79341 20.9179C3.79341 21.0495 3.72373 21.1734 3.61535 21.2431C3.476 21.336 3.16633 21.367 2.10573 21.3592H0.766423V23.914C2.87215 23.914 3.54568 23.9527 3.63083 23.9914C3.74696 24.0533 3.78567 24.1462 3.78567 24.3397C3.78567 24.5333 3.74696 24.6339 3.63083 24.6881C3.54568 24.7346 2.87215 24.7655 2.12121 24.7655H0.766423V27.3203C3.35988 27.3203 3.53019 27.3358 3.65406 27.4596C3.72373 27.5293 3.78567 27.6919 3.78567 27.808C3.78567 27.9474 3.73148 28.048 3.63858 28.0944C3.54568 28.1409 2.87215 28.1719 2.12895 28.1719H0.774165V30.804C3.22053 30.804 3.62309 30.8272 3.69277 30.9047C3.74696 30.9589 3.79341 31.0905 3.79341 31.1911C3.79341 31.2995 3.74696 31.4311 3.70051 31.4853C3.63083 31.555 3.22053 31.5782 2.18315 31.5782H0.766423C0.805132 33.8929 0.812873 33.9239 1.00641 34.071C1.18447 34.2104 1.33156 34.2181 3.61535 34.2181L6.03075 34.2104V0.766423C2.34572 0.774165 1.19996 0.812873 1.1148 0.851581C1.02964 0.89029 0.913515 1.00641 0.859323 1.1148ZM6.80491 34.2104H19.3541C19.2922 33.9471 19.2767 33.3665 19.2767 32.7627V31.6556C14.9801 31.6556 13.873 31.6246 13.7801 31.5782C13.6253 31.5085 13.6176 31.4234 13.6176 28.5435C13.6176 26.3216 13.6408 25.5552 13.7105 25.4855C13.7879 25.4081 14.4537 25.3849 16.5439 25.3849H19.2767V23.1398H11.148C10.9622 22.8611 10.939 22.7295 10.9699 22.6056C11.0009 22.505 11.1093 22.3966 11.2022 22.3579C11.2951 22.3192 13.1531 22.2882 15.3285 22.2882H19.2767V20.5076C12.8511 20.5076 11.3183 20.4844 11.2254 20.4302C11.1402 20.3915 11.0319 20.2831 10.9931 20.198C10.9312 20.0896 10.9467 19.9967 11.0319 19.8496L11.148 19.656H19.2767V15.7078C18.8819 15.8007 18.3167 15.8239 17.7671 15.8239C17.0549 15.8162 16.6058 15.7775 16.2575 15.6768C15.9788 15.6072 15.4523 15.4059 15.0962 15.2356C14.7324 15.0653 14.175 14.7324 13.8653 14.4846C13.5479 14.2446 13.1144 13.8343 12.9053 13.5789C12.6963 13.3234 12.3866 12.8898 12.2241 12.6111C12.0615 12.3402 11.8138 11.7828 11.6744 11.3725C11.4576 10.7377 11.4189 10.5054 11.388 9.63061C11.3647 8.88741 11.388 8.47711 11.4809 8.04357C11.5505 7.72617 11.6976 7.23844 11.806 6.95974C11.9144 6.68879 12.1621 6.20106 12.3634 5.87591C12.5647 5.55851 12.9595 5.06304 13.2537 4.7766C13.5401 4.49016 14.0124 4.10307 14.2988 3.90953C14.5853 3.72373 15.104 3.46052 15.4446 3.32117C15.7852 3.18956 16.3117 3.02699 16.6213 2.96505C16.931 2.91086 17.4961 2.85667 17.8832 2.85667C18.2626 2.85667 18.8432 2.9186 19.1761 2.98054C19.509 3.05021 20.0354 3.21278 20.3605 3.34439C20.6779 3.48374 21.1812 3.7547 21.4831 3.94824C21.7773 4.14952 22.265 4.56757 22.5669 4.88498C22.8688 5.19465 23.2559 5.69785 23.434 5.99204C23.612 6.29396 23.8443 6.7662 23.9449 7.03716C24.0533 7.31586 24.1927 7.85777 24.2701 8.23711C24.363 8.74806 24.3862 9.13515 24.3552 9.66932C24.332 10.0796 24.2391 10.668 24.1539 10.9854C24.0688 11.3105 23.9294 11.7441 23.8365 11.9531C23.7436 12.1699 23.5114 12.5802 23.3256 12.8666C23.1398 13.1531 22.9927 13.4085 22.9927 13.424C22.9927 13.4472 24.3165 13.4627 25.9345 13.4627H28.8764V1.15351L28.4893 0.766423H6.80491V34.2104ZM16.2188 3.90179C15.9633 3.97921 15.5762 4.1263 15.3672 4.23468C15.1504 4.33532 14.7711 4.57531 14.5156 4.75337C14.2601 4.93143 13.8421 5.30303 13.6021 5.57399C13.3543 5.85269 13.0137 6.33267 12.8511 6.65008C12.6886 6.97523 12.4718 7.49392 12.3712 7.81133C12.2241 8.29131 12.1931 8.57001 12.1931 9.35966C12.1931 10.157 12.2241 10.4357 12.3712 10.908C12.4718 11.2331 12.6731 11.7209 12.8124 11.9918C12.9595 12.2705 13.246 12.704 13.4472 12.9595C13.6563 13.215 14.0279 13.5943 14.2833 13.8034C14.5388 14.0046 15.0265 14.3066 15.3672 14.4769C15.7078 14.6395 16.2265 14.833 16.5284 14.9027C16.8226 14.9724 17.3645 15.0343 17.7284 15.042C18.0845 15.0498 18.58 15.0265 18.8277 14.9956C19.2457 14.9414 19.269 14.9259 19.269 14.7246C19.269 14.6085 19.3464 14.353 19.447 14.1595C19.5631 13.935 19.7257 13.7569 19.9347 13.6408C20.198 13.4937 20.3605 13.4705 21.0341 13.4705L21.8315 13.4627C22.4353 12.7737 22.7682 12.2628 22.954 11.8757C23.1398 11.4963 23.3488 10.9544 23.4107 10.6757C23.4727 10.4048 23.5269 9.80867 23.5269 9.35966C23.5346 8.78677 23.4882 8.36872 23.372 7.92745C23.2869 7.58682 23.0779 7.05264 22.9075 6.72749C22.745 6.41009 22.4585 5.97655 22.2727 5.75979C22.0947 5.54302 21.7386 5.18691 21.4831 4.9624C21.2276 4.74563 20.7399 4.42822 20.3992 4.25791C20.0586 4.08759 19.5477 3.89405 19.2767 3.83212C18.998 3.76244 18.4561 3.69277 18.0768 3.67728C17.6897 3.65406 17.2174 3.66954 17.0316 3.70825C16.8381 3.73922 16.4742 3.83212 16.2188 3.90179ZM20.167 14.4382L20.1205 33.9394C20.4612 34.2104 20.8483 34.2181 27.15 34.2181L33.831 34.2104L34.2181 33.8233V14.624L33.831 14.2369C21.994 14.2446 20.5076 14.2601 20.3605 14.3375L20.167 14.4382ZM14.3995 30.8118H19.2767V26.2442H14.3995V30.8118Z" fill="#16A6B7"/>
<path d="M0.774734 4.25729V3.8315V3.40571H2.18371C3.24432 3.39796 3.62366 3.42119 3.70108 3.49861C3.75527 3.5528 3.78624 3.69989 3.77849 3.8315C3.76301 3.98633 3.69334 4.09471 3.56173 4.15665C3.43012 4.22632 2.95788 4.25729 0.774734 4.25729Z" fill="#16A6B7"/>
<path d="M0.774734 7.66361V7.23782V6.81203H2.12952C2.88046 6.81203 3.55399 6.843 3.63914 6.88945C3.74753 6.94364 3.79398 7.04428 3.79398 7.23782C3.79398 7.43136 3.74753 7.532 3.63914 7.5862C3.55399 7.63265 2.88046 7.66361 0.774734 7.66361Z" fill="#16A6B7"/>
<path d="M0.774734 11.0699V10.6441V10.2184H2.16823C3.30625 10.2184 3.58495 10.2416 3.67785 10.3345C3.73979 10.3964 3.79398 10.5512 3.79398 10.6829C3.79398 10.8377 3.74237 10.9409 3.63914 10.9925C3.55399 11.039 2.88046 11.0699 0.774734 11.0699Z" fill="#16A6B7"/>
<path d="M0.774734 14.4763V14.0892V13.7021H2.19146C3.22884 13.7021 3.62366 13.7253 3.70108 13.795C3.75527 13.8492 3.79398 13.9808 3.79398 14.0892C3.79398 14.1976 3.75527 14.3292 3.70108 14.3756C3.6314 14.453 3.2211 14.4763 0.774734 14.4763Z" fill="#16A6B7"/>
<path d="M0.774734 17.8826V17.4955V17.1084H2.19146C3.22884 17.1084 3.62366 17.1316 3.70108 17.2013C3.75527 17.2555 3.79398 17.3871 3.79398 17.4955C3.79398 17.6039 3.75527 17.7355 3.70108 17.7819C3.6314 17.8594 3.2211 17.8826 0.774734 17.8826Z" fill="#16A6B7"/>
<path d="M10.9937 20.2051C10.9395 20.089 10.9473 19.9961 11.0324 19.8567L11.1485 19.6632H19.2773L19.316 20.5148H15.3523C12.8594 20.5148 11.3266 20.4838 11.226 20.4373C11.1408 20.3909 11.0402 20.2902 10.9937 20.2051Z" fill="#16A6B7"/>
<path d="M0.774734 21.3663V20.9405V20.5148H2.19146C3.22884 20.5148 3.6314 20.538 3.70108 20.6077C3.75527 20.6618 3.79398 20.8012 3.79398 20.9173C3.79398 21.0567 3.73204 21.1805 3.62366 21.2502C3.48431 21.3431 3.17465 21.3663 0.774734 21.3663Z" fill="#16A6B7"/>
<path d="M10.9937 22.5895C11.0402 22.4811 11.1408 22.3727 11.2105 22.3495C11.2802 22.3263 13.1381 22.3108 19.316 22.2953L19.2773 23.1469H11.1485L11.0324 22.9766C10.9395 22.8372 10.9318 22.7521 10.9937 22.5895Z" fill="#16A6B7"/>
<path d="M0.774734 24.7727V24.3469V23.9211H2.12952C2.88046 23.9211 3.55399 23.952 3.63914 23.9985C3.74753 24.0527 3.79398 24.1533 3.79398 24.3469C3.79398 24.5404 3.74753 24.6411 3.63914 24.6952C3.55399 24.7417 2.88046 24.7727 0.774734 24.7727Z" fill="#16A6B7"/>
<path d="M13.6104 28.5428C13.6026 26.081 13.6181 25.5623 13.7033 25.4849C13.7884 25.4152 14.5316 25.392 19.2773 25.392L19.316 26.2436H14.4V30.8111H19.316V31.6627H16.6296C14.9884 31.6627 13.8736 31.6318 13.7807 31.5853C13.6336 31.5079 13.6259 31.4227 13.6104 28.5428Z" fill="#16A6B7"/>
<path d="M0.774734 28.179V27.7532V27.3274H2.15275C3.34496 27.3274 3.54624 27.3506 3.66237 27.4668C3.73979 27.5364 3.80172 27.6913 3.80172 27.8151C3.79398 27.9467 3.73979 28.0551 3.63914 28.1016C3.55399 28.148 2.88046 28.179 0.774734 28.179Z" fill="#16A6B7"/>
<path d="M0.774734 31.5853V31.1982V30.8111H2.19146C3.22884 30.8111 3.6314 30.8344 3.70108 30.904C3.75527 30.9582 3.80172 31.0898 3.80172 31.1982C3.80172 31.3066 3.75527 31.4382 3.70108 31.4924C3.63914 31.5621 3.2211 31.5853 0.774734 31.5853Z" fill="#16A6B7"/>
<path fill-rule="evenodd" clip-rule="evenodd" d="M27.143 15.4062C32.6473 15.4062 32.7479 15.4062 32.9028 15.5611C33.0499 15.7082 33.0576 15.8166 33.0576 18.1932C33.0576 20.5699 33.0499 20.6783 32.9028 20.8254C32.7479 20.9802 32.6473 20.9802 27.1894 20.9802C22.3741 20.9802 21.6154 20.9648 21.2903 20.748L21.2825 18.201C21.2825 15.9327 21.2903 15.6385 21.4064 15.5301C21.5225 15.4217 22.1496 15.4063 27.143 15.4063V15.4062ZM22.0645 20.1287H32.206V16.2578H22.0645V20.1287Z" fill="#16A6B7"/>
<path fill-rule="evenodd" clip-rule="evenodd" d="M17.9523 4.48338C18.022 4.49886 18.1226 4.55305 18.1768 4.5995C18.2388 4.65369 18.2775 4.85498 18.2697 5.53624L18.5562 5.62914C18.7188 5.67559 19.0207 5.86913 19.2297 6.05493C19.4387 6.24073 19.6787 6.52717 19.7639 6.69749C19.8413 6.8678 19.9342 7.17747 19.9574 7.39424C19.9884 7.69616 19.9652 7.81229 19.8645 7.91293C19.7871 7.99034 19.6555 8.05228 19.5626 8.05228C19.4697 8.06002 19.3536 8.01357 19.2994 7.95938C19.2452 7.90519 19.1678 7.68068 19.1291 7.47165C19.0904 7.25489 18.982 6.99941 18.9046 6.89103C18.8194 6.78265 18.6491 6.63556 18.2697 6.42653L18.262 8.94257L18.6336 9.08966C18.8349 9.17482 19.1368 9.36836 19.3071 9.51545C19.4697 9.67028 19.6787 9.9335 19.7716 10.1038C19.8955 10.3515 19.9342 10.5528 19.9342 11.0715C19.9342 11.6444 19.911 11.776 19.7329 12.0779C19.6168 12.2715 19.4078 12.5347 19.2684 12.6586C19.1213 12.7902 18.8349 12.9682 18.262 13.2005L18.2697 13.6263C18.2775 13.8895 18.2388 14.083 18.1768 14.1372C18.1226 14.1837 18.0143 14.2456 17.9446 14.2688C17.8517 14.3075 17.7356 14.2533 17.6117 14.1295C17.4569 13.9746 17.4182 13.8585 17.4182 13.5488C17.4182 13.1772 17.4104 13.1618 17.1704 13.0843C17.0311 13.0456 16.7524 12.8908 16.5511 12.736C16.3034 12.5579 16.1176 12.3334 15.986 12.0547C15.8776 11.8379 15.7692 11.4973 15.746 11.3038C15.7073 11.0328 15.7227 10.9244 15.8234 10.816C15.9008 10.7464 16.0401 10.6844 16.1485 10.6844C16.2492 10.6844 16.3885 10.7386 16.4505 10.8006C16.5124 10.8625 16.5666 11.0018 16.5666 11.1102C16.5666 11.2186 16.6053 11.3967 16.6517 11.5128C16.6904 11.6367 16.8221 11.8302 16.9382 11.9463C17.0543 12.0702 17.2091 12.2018 17.2865 12.2405C17.4104 12.3024 17.4182 12.225 17.4182 9.75544L17.0156 9.57738C16.7911 9.47674 16.4892 9.27546 16.3421 9.12837C16.195 8.98128 16.0092 8.71032 15.924 8.51678C15.8389 8.32323 15.7537 8.01357 15.7382 7.82003C15.715 7.61874 15.746 7.2936 15.8156 7.04586C15.8931 6.78265 16.0556 6.48846 16.2414 6.2717C16.4272 6.05493 16.7059 5.85365 16.9769 5.72978C17.4104 5.53624 17.4182 5.5285 17.4182 5.20335C17.4182 5.02529 17.4569 4.79304 17.4956 4.6924C17.542 4.59176 17.6349 4.49112 17.6969 4.47563C17.7665 4.46015 17.8749 4.46015 17.9523 4.48338ZM17.124 6.60459C16.9769 6.69749 16.7911 6.92974 16.7059 7.12328C16.5975 7.35553 16.5511 7.57229 16.5743 7.78132C16.5975 7.95164 16.7059 8.22259 16.8221 8.37743C16.9382 8.54 17.1008 8.70258 17.1859 8.74903C17.2711 8.79548 17.3562 8.8187 17.3794 8.80322C17.4027 8.79548 17.4104 8.2613 17.3949 7.611L17.3794 6.43427L17.124 6.60459ZM18.2697 12.3102C18.6413 12.1012 18.8271 11.9308 18.92 11.807C19.0516 11.6289 19.0826 11.4586 19.0826 11.0715C19.0826 10.6767 19.0516 10.5141 18.92 10.3361C18.8271 10.2045 18.6491 10.0419 18.5175 9.96446L18.2852 9.82511L18.2697 12.3102ZM22.7599 21.7163C22.9999 21.7395 23.2863 21.8169 23.4102 21.8866C23.5341 21.964 23.6966 22.1498 23.7818 22.2969C23.8592 22.444 23.9211 22.6763 23.9211 22.8156C23.9211 22.955 23.8592 23.1949 23.7895 23.3498C23.7121 23.5046 23.5495 23.6904 23.4179 23.7756C23.2476 23.8762 23.0309 23.9149 22.6051 23.9149C22.1638 23.9227 21.9702 23.884 21.7767 23.7678C21.6374 23.6827 21.467 23.4969 21.3974 23.3575C21.3277 23.2182 21.2735 22.9859 21.2735 22.8388C21.2735 22.6917 21.3277 22.4595 21.3896 22.3356C21.4516 22.204 21.5754 22.0414 21.6528 21.964C21.7303 21.8866 21.9161 21.7937 22.0631 21.755C22.218 21.7163 22.5276 21.7008 22.7599 21.7163ZM22.0631 22.8388C22.0631 22.8853 22.1173 22.9704 22.1793 23.0324C22.2489 23.0943 22.4038 23.1485 22.5276 23.1485C22.6593 23.1485 22.8296 23.1098 22.9147 23.0711C22.9999 23.0246 23.0696 22.9317 23.0696 22.8543C23.0773 22.7846 23.0309 22.6763 22.9767 22.6221C22.9225 22.5679 22.7522 22.5292 22.5896 22.5292C22.4347 22.5292 22.2489 22.5834 22.1793 22.6453C22.1096 22.715 22.0554 22.8001 22.0631 22.8388ZM25.7404 21.7008C25.9572 21.724 26.2436 21.7937 26.383 21.8634C26.5223 21.9253 26.7004 22.0956 26.7856 22.235C26.8785 22.3898 26.9404 22.6221 26.9404 22.8388C26.9404 23.0479 26.8785 23.2801 26.7856 23.4349C26.7004 23.5743 26.5301 23.7446 26.3985 23.8065C26.2591 23.8762 25.9572 23.9227 25.6243 23.9227C25.2992 23.9227 24.9895 23.8762 24.8501 23.8065C24.7263 23.7446 24.5482 23.5743 24.4631 23.4349C24.3779 23.2878 24.3082 23.0479 24.3082 22.8543C24.3082 22.6763 24.3547 22.4285 24.4166 22.3124C24.4785 22.1963 24.5869 22.0492 24.6643 21.9872C24.7418 21.9253 24.9276 21.8247 25.0824 21.7705C25.2295 21.7163 25.5314 21.6853 25.7404 21.7008ZM25.1443 22.8311C25.1521 22.9008 25.2063 22.9937 25.2604 23.0479C25.3146 23.102 25.485 23.1485 25.6398 23.1485C25.7946 23.1485 25.9804 23.0943 26.0501 23.0324C26.112 22.9704 26.1662 22.8775 26.1662 22.8388C26.1662 22.7924 26.1198 22.7072 26.0501 22.6453C25.9882 22.5834 25.8024 22.5292 25.6398 22.5292C25.4772 22.5292 25.2992 22.5679 25.2372 22.6221C25.183 22.6685 25.1366 22.7692 25.1443 22.8311ZM28.8371 21.7163C29.1003 21.7395 29.3867 21.8092 29.4874 21.8866C29.588 21.964 29.7429 22.1189 29.8358 22.2427C29.9519 22.3976 29.9983 22.5756 29.9983 22.8233C29.9983 23.0324 29.9364 23.2801 29.8667 23.3962C29.7893 23.5124 29.619 23.6827 29.4796 23.7678C29.2861 23.884 29.0926 23.9227 28.6281 23.9227C28.0784 23.9227 28.001 23.8994 27.7842 23.7059C27.6526 23.5898 27.49 23.3962 27.4359 23.2801C27.3739 23.164 27.3275 22.9627 27.3275 22.8388C27.3275 22.7072 27.3894 22.475 27.4668 22.3201C27.5365 22.1653 27.6526 22.0027 27.7146 21.9563C27.7765 21.9098 27.9468 21.8247 28.1016 21.7705C28.2642 21.7085 28.5584 21.6853 28.8371 21.7163ZM28.1636 22.8543C28.1713 22.9317 28.2487 23.0246 28.3339 23.0711C28.419 23.1098 28.5816 23.1485 28.6823 23.1485C28.7906 23.1485 28.9455 23.1098 29.0306 23.0711C29.1158 23.0246 29.1855 22.9317 29.1855 22.8543C29.1932 22.7846 29.1468 22.6763 29.0926 22.6221C29.0384 22.5679 28.8526 22.5292 28.6823 22.5292C28.5119 22.5292 28.3184 22.5679 28.2565 22.6221C28.2023 22.6685 28.1558 22.7769 28.1636 22.8543ZM31.895 21.7163C32.135 21.7395 32.4292 21.8169 32.5531 21.9021C32.6847 21.9795 32.8473 22.173 32.9247 22.3279C32.9944 22.475 33.0563 22.7072 33.0563 22.8388C33.0563 22.9627 33.0098 23.164 32.9556 23.2801C32.8937 23.3962 32.7389 23.5898 32.6073 23.7059C32.3828 23.8994 32.3053 23.9227 31.7789 23.9227C31.4615 23.9227 31.1209 23.884 31.028 23.8375C30.9273 23.7833 30.7725 23.6749 30.6719 23.582C30.579 23.4891 30.4628 23.2878 30.4241 23.1253C30.3777 22.9395 30.3777 22.7304 30.4241 22.5446C30.4628 22.3898 30.5944 22.1576 30.7106 22.0414C30.8344 21.9253 31.0512 21.7937 31.1983 21.755C31.3531 21.7163 31.6628 21.7008 31.895 21.7163ZM31.1828 22.8156C31.1906 22.8698 31.2525 22.9704 31.3144 23.0324C31.3841 23.0943 31.5389 23.1485 31.6628 23.1485C31.7944 23.1485 31.9647 23.1098 32.0499 23.0711C32.135 23.0246 32.2047 22.9317 32.2047 22.8543C32.2125 22.7846 32.166 22.6763 32.1118 22.6221C32.0576 22.5679 31.8718 22.5292 31.7015 22.5292C31.5312 22.5292 31.3376 22.5679 31.2757 22.6221C31.2215 22.6685 31.1751 22.7614 31.1828 22.8156ZM22.6283 24.6968C23.2089 24.6968 23.2321 24.7046 23.4954 24.9678C23.7663 25.231 23.7663 25.2465 23.7663 25.8968C23.7663 26.5161 23.7586 26.5703 23.5418 26.8026C23.3328 27.0425 23.2786 27.058 22.7134 27.0813C22.2567 27.1045 22.0399 27.0813 21.8541 26.9884C21.6993 26.9109 21.5522 26.7561 21.4825 26.5935C21.4206 26.4464 21.3664 26.1368 21.3664 25.9123C21.3664 25.6878 21.4128 25.3858 21.467 25.2387C21.5212 25.0916 21.6683 24.9136 21.7922 24.8362C21.9625 24.7355 22.187 24.6968 22.6283 24.6968ZM22.218 26.2452H22.9147V25.5484H22.218V26.2452ZM25.6243 24.6968C26.0733 24.6968 26.2669 24.7278 26.4604 24.8517C26.5998 24.9368 26.7391 25.0994 26.7701 25.2155C26.801 25.3316 26.8243 25.6568 26.8243 25.9432C26.8243 26.2452 26.7778 26.5393 26.7081 26.6632C26.6462 26.7871 26.4991 26.9264 26.383 26.9884C26.2591 27.0503 25.934 27.0967 25.6243 27.0967C25.3301 27.0967 25.005 27.058 24.9121 27.0116C24.8114 26.9574 24.6798 26.849 24.6024 26.7561C24.494 26.6245 24.4708 26.4387 24.4708 25.8968C24.4708 25.3471 24.494 25.1613 24.6024 25.0375C24.6798 24.9446 24.8037 24.8284 24.8889 24.782C24.974 24.7355 25.3069 24.6968 25.6243 24.6968ZM25.2372 26.2452H26.0114V25.5484H25.2372V26.2452ZM28.6668 24.6968C28.9842 24.6968 29.2784 24.7433 29.4177 24.813C29.5493 24.8749 29.7042 25.0297 29.7661 25.1613C29.8358 25.2929 29.8822 25.6026 29.8822 25.8968C29.8822 26.191 29.8358 26.4929 29.7661 26.6322C29.7042 26.7561 29.5416 26.9187 29.4022 26.9884C29.2164 27.0813 28.9919 27.1045 28.5429 27.0813C27.97 27.058 27.9236 27.0425 27.7068 26.8026C27.4978 26.5703 27.4823 26.5084 27.4823 25.9123C27.4823 25.3858 27.5055 25.2387 27.6371 25.0529C27.73 24.9368 27.8771 24.8052 27.97 24.7742C28.0629 24.7355 28.3803 24.7046 28.6668 24.6968ZM28.3339 26.2452H29.0306V25.5484H28.3339V26.2452ZM31.8099 24.7123C32.4292 24.7355 32.4602 24.7433 32.6769 24.9833C32.8937 25.2233 32.9015 25.2774 32.9015 25.8968C32.9015 26.5161 32.8937 26.5703 32.6769 26.8026C32.4679 27.0425 32.4137 27.058 31.8486 27.0813C31.5157 27.0967 31.1441 27.0735 31.028 27.0271C30.9119 26.9806 30.7415 26.8258 30.6564 26.6864C30.5403 26.5006 30.5015 26.2993 30.5015 25.8968C30.5015 25.4787 30.5403 25.2929 30.6641 25.0994C30.757 24.96 30.9041 24.813 30.997 24.7742C31.0899 24.7278 31.4538 24.7046 31.8099 24.7123ZM31.3531 26.2452H32.0499V25.5484H31.3531V26.2452ZM22.6051 27.7161C23.2786 27.7161 23.3096 27.7238 23.5341 27.9483C23.7586 28.1728 23.7663 28.2038 23.7663 28.8773C23.7663 29.5276 23.7586 29.5818 23.5573 29.7908C23.4025 29.9534 23.2321 30.0308 22.9534 30.0695C22.7444 30.1005 22.4115 30.1005 22.218 30.0695C22.009 30.0308 21.7767 29.9302 21.6374 29.7986C21.4128 29.5895 21.4051 29.5663 21.4051 28.8773C21.4051 28.1806 21.4128 28.1728 21.6606 27.9406C21.9006 27.7238 21.947 27.7161 22.6051 27.7161ZM22.218 29.2644H22.9147V28.4902H22.218V29.2644ZM25.6243 27.7161C26.2823 27.7161 26.3365 27.7238 26.5456 27.9251C26.6927 28.0722 26.7856 28.258 26.8243 28.4902C26.8552 28.6838 26.8552 29.0089 26.8243 29.2257C26.7856 29.4889 26.7004 29.6747 26.5688 29.8141C26.4294 29.9534 26.2359 30.0386 25.9727 30.0773C25.7637 30.1082 25.4308 30.1082 25.2372 30.0773C25.005 30.0386 24.8192 29.9457 24.6798 29.7986C24.4785 29.5818 24.4631 29.5354 24.4708 28.8696C24.4785 28.2038 24.4863 28.1573 24.6953 27.9406C24.9121 27.7238 24.943 27.7161 25.6243 27.7161ZM25.2372 29.2644H26.0114V28.4902H25.2372V29.2644ZM28.6668 27.7161C29.3093 27.7161 29.3558 27.7238 29.5958 27.9406C29.828 28.1496 29.8512 28.2115 29.8745 28.7302C29.8977 29.1405 29.8667 29.3805 29.7816 29.5741C29.7119 29.7212 29.5648 29.8992 29.4487 29.9611C29.3248 30.0308 29.0384 30.0773 28.7287 30.0773C28.45 30.0773 28.1249 30.0463 28.0087 30.0153C27.8926 29.9844 27.7223 29.845 27.6371 29.7057C27.521 29.5199 27.4823 29.3186 27.4823 28.8928C27.4823 28.5135 27.5288 28.258 27.6139 28.1032C27.6836 27.9793 27.792 27.8399 27.8616 27.8012C27.9313 27.7548 28.2952 27.7161 28.6668 27.7161ZM28.3339 29.2644H29.0306V28.4902H28.3339V29.2644ZM31.6783 27.7161C32.0576 27.7161 32.4292 27.747 32.5144 27.7935C32.5995 27.8322 32.7234 27.9715 32.7853 28.1032C32.855 28.2425 32.9015 28.5522 32.9015 28.8928C32.9015 29.3186 32.8627 29.5199 32.7466 29.7057C32.6615 29.845 32.4989 29.9844 32.3828 30.0153C32.2666 30.0463 31.9415 30.0773 31.6551 30.0773C31.3454 30.0773 31.0667 30.0308 30.9351 29.9611C30.8267 29.8992 30.6796 29.7289 30.6177 29.5895C30.5557 29.4502 30.5015 29.1328 30.5015 28.8773C30.5015 28.6218 30.5403 28.3277 30.579 28.2193C30.6254 28.1109 30.7338 27.9561 30.8267 27.8709C30.9738 27.7393 31.1054 27.7161 31.6783 27.7161ZM31.3531 29.2644H32.0499V28.4902H31.3531V29.2644ZM22.6747 30.6734C23.2863 30.6966 23.325 30.7043 23.5418 30.9443C23.7586 31.1843 23.7663 31.2385 23.7663 31.8579C23.7663 32.5004 23.7663 32.5236 23.5031 32.7868C23.2476 33.0501 23.2244 33.0578 22.6515 33.0578C22.2877 33.0578 21.978 33.0114 21.8309 32.9417C21.6993 32.872 21.5522 32.7094 21.4825 32.5546C21.4206 32.4075 21.3664 32.0978 21.3664 31.8733C21.3664 31.6488 21.4128 31.3469 21.467 31.1998C21.5212 31.0527 21.6683 30.8669 21.7922 30.7895C21.978 30.6734 22.1483 30.6502 22.6747 30.6734ZM22.218 32.2062H22.9147V31.5095H22.218V32.2062ZM25.6475 30.6579C25.9417 30.6579 26.2591 30.7043 26.383 30.7663C26.4991 30.8205 26.6462 30.9676 26.7081 31.0837C26.7778 31.2153 26.8243 31.5017 26.8243 31.8114C26.8243 32.0901 26.801 32.4153 26.7701 32.5314C26.7391 32.6475 26.5998 32.8178 26.4604 32.903C26.2669 33.0191 26.0733 33.0578 25.6475 33.0578C25.3379 33.0578 25.005 33.0191 24.9121 32.9726C24.8114 32.9185 24.6798 32.8101 24.6024 32.7172C24.494 32.5856 24.4708 32.3998 24.4708 31.8579C24.4708 31.4243 24.5095 31.1069 24.5637 31.0218C24.6179 30.9521 24.765 30.836 24.8966 30.774C25.0282 30.7043 25.3301 30.6579 25.6475 30.6579ZM25.2372 32.2062H26.0114V31.5095H25.2372V32.2062ZM28.6668 30.6579C28.9842 30.6579 29.2784 30.7043 29.4177 30.774C29.5493 30.836 29.7042 30.9908 29.7661 31.1224C29.8358 31.2617 29.8822 31.5637 29.8822 31.8733C29.8822 32.2604 29.8435 32.4617 29.7274 32.6475C29.6422 32.7868 29.4874 32.9339 29.379 32.9804C29.2784 33.0191 28.93 33.0578 28.6048 33.0578C28.0474 33.0578 28.0165 33.0501 27.7533 32.7868C27.49 32.5159 27.4823 32.5004 27.4823 31.8733C27.4823 31.3469 27.5055 31.1998 27.6371 31.014C27.73 30.8979 27.8771 30.7663 27.97 30.7353C28.0629 30.6966 28.3803 30.6656 28.6668 30.6579ZM28.3339 32.2062H29.0306V31.5095H28.3339V32.2062ZM31.8099 30.6734C32.4292 30.6966 32.4602 30.7043 32.6769 30.9443C32.8937 31.1843 32.9015 31.2385 32.9015 31.8579C32.9015 32.5004 32.9015 32.5236 32.6382 32.7868C32.3828 33.0501 32.3595 33.0578 31.7867 33.0578C31.4615 33.0578 31.1131 33.0191 31.0048 32.9804C30.9041 32.9339 30.7415 32.7868 30.6564 32.6475C30.548 32.4617 30.5015 32.2604 30.5015 31.8733C30.5015 31.5637 30.548 31.2617 30.6177 31.1224C30.6873 30.9908 30.8344 30.836 30.9506 30.774C31.0977 30.6889 31.3454 30.6579 31.8099 30.6734ZM31.3531 32.2062H32.0499V31.5095H31.3531V32.2062Z" fill="#16A6B7"/>
</svg>
