<svg width="41" height="32" viewBox="0 0 41 32" fill="none" xmlns="http://www.w3.org/2000/svg">
<path d="M41 32H5.125V29.0909H38.4375V8.72727H41V32Z" fill="#16A6B7"/>
<path d="M33.3125 2.90909V23.2727H2.5625V2.90909H33.3125ZM35.875 0H0V26.1818H35.875V0Z" fill="#16A6B7"/>
<path d="M7.6875 8.72727H5.125V17.4545H7.6875V20.3636H17.9375C16.2385 20.3636 14.609 19.5974 13.4076 18.2335C12.2062 16.8696 11.5312 15.0198 11.5312 13.0909C11.5312 11.1621 12.2062 9.31222 13.4076 7.94832C14.609 6.58441 16.2385 5.81818 17.9375 5.81818H7.6875V8.72727ZM28.1875 8.72727V5.81818H17.9375C19.6365 5.81818 21.266 6.58441 22.4674 7.94832C23.6688 9.31222 24.3438 11.1621 24.3438 13.0909C24.3438 15.0198 23.6688 16.8696 22.4674 18.2335C21.266 19.5974 19.6365 20.3636 17.9375 20.3636H28.1875V17.4545H30.75V8.72727H28.1875Z" fill="#16A6B7"/>
</svg>
