<svg width="47" height="29" viewBox="0 0 47 29" fill="none" xmlns="http://www.w3.org/2000/svg">
<path d="M36.8336 9.85935V3.80602C36.8336 1.92602 35.9802 1.16602 33.8602 1.16602H28.4736C26.3536 1.16602 25.5002 1.92602 25.5002 3.80602V9.84602C25.5002 11.7393 26.3536 12.486 28.4736 12.486H33.8602C35.9802 12.4993 36.8336 11.7393 36.8336 9.85935Z" fill="#16A6B7" stroke="#16A6B7" stroke-width="1.02476" stroke-linecap="round" stroke-linejoin="round"/>
<path d="M36.8336 24.86V19.4733C36.8336 17.3533 35.9802 16.5 33.8602 16.5H28.4736C26.3536 16.5 25.5002 17.3533 25.5002 19.4733V24.86C25.5002 26.98 26.3536 27.8333 28.4736 27.8333H33.8602C35.9802 27.8333 36.8336 26.98 36.8336 24.86Z" fill="#16A6B7" stroke="#16A6B7" stroke-width="1.02476" stroke-linecap="round" stroke-linejoin="round"/>
<path d="M21.5003 9.85935V3.80602C21.5003 1.92602 20.647 1.16602 18.527 1.16602H13.1403C11.0203 1.16602 10.167 1.92602 10.167 3.80602V9.84602C10.167 11.7393 11.0203 12.486 13.1403 12.486H18.527C20.647 12.4993 21.5003 11.7393 21.5003 9.85935Z" fill="#16A6B7" stroke="#16A6B7" stroke-width="1.02476" stroke-linecap="round" stroke-linejoin="round"/>
<path d="M21.5003 24.86V19.4733C21.5003 17.3533 20.647 16.5 18.527 16.5H13.1403C11.0203 16.5 10.167 17.3533 10.167 19.4733V24.86C10.167 26.98 11.0203 27.8333 13.1403 27.8333H18.527C20.647 27.8333 21.5003 26.98 21.5003 24.86Z" fill="#16A6B7" stroke="#16A6B7" stroke-width="1.02476" stroke-linecap="round" stroke-linejoin="round"/>
</svg>
