<svg width="43" height="34" viewBox="0 0 43 34" fill="none" xmlns="http://www.w3.org/2000/svg">
<path d="M42 17C42 9.458 42 5.686 39.5974 3.344C37.1948 1.002 33.3306 1 25.6 1H17.4C9.66945 1 5.80315 1 3.4026 3.344C1.00205 5.688 1 9.458 1 17C1 24.542 1 28.314 3.4026 30.656C5.8052 32.998 9.66945 33 17.4 33H25.6C33.3306 33 37.1968 33 39.5974 30.656C40.9381 29.35 41.5306 27.6 41.7909 25M17.4 25H9.2M25.6 25H22.525M1 13H11.25M42 13H19.45" stroke="#16A6B7" stroke-width="2" stroke-linecap="round"/>
</svg>
