<svg width="39" height="39" viewBox="0 0 39 39" fill="none" xmlns="http://www.w3.org/2000/svg">
<path d="M19.5 30.1875C18.8508 30.1875 18.3125 29.6492 18.3125 29V24.25C18.3125 23.6008 18.8508 23.0625 19.5 23.0625C20.1492 23.0625 20.6875 23.6008 20.6875 24.25V29C20.6875 29.6492 20.1492 30.1875 19.5 30.1875Z" fill="#16A6B7"/>
<path d="M28.3667 36.2196H10.6334C7.75173 36.2196 5.12339 34.003 4.64839 31.1688L2.54256 18.5496C2.19423 16.5863 3.16006 14.0688 4.72756 12.818L15.7001 4.03047C17.8217 2.32047 21.1626 2.3363 23.3001 4.0463L34.2726 12.818C35.8242 14.0688 36.7742 16.5863 36.4576 18.5496L34.3517 31.153C33.8767 33.9555 31.1851 36.2196 28.3667 36.2196ZM19.4842 5.1388C18.6451 5.1388 17.8059 5.39214 17.1884 5.88297L6.21589 14.6863C5.32923 15.3988 4.69589 17.0455 4.88589 18.1696L6.99173 30.773C7.27673 32.4355 8.93923 33.8446 10.6334 33.8446H28.3667C30.0609 33.8446 31.7234 32.4355 32.0084 30.7571L34.1142 18.1538C34.2884 17.0455 33.6551 15.3671 32.7842 14.6705L21.8117 5.8988C21.1784 5.39214 20.3234 5.1388 19.4842 5.1388Z" fill="#16A6B7"/>
</svg>
