<svg width="31" height="31" viewBox="0 0 31 31" fill="none" xmlns="http://www.w3.org/2000/svg">
<path d="M16.9583 22.7917L18.4502 23.6579C19.1998 20.9367 22.0785 19.3209 24.88 20.05C25.5561 20.2229 26.1907 20.5295 26.7463 20.9518C27.3018 21.3741 27.7671 21.9036 28.1146 22.5088M30.0833 27.1667L28.5914 26.3004C27.8419 29.0217 24.9631 30.6375 22.1616 29.9084C20.827 29.5676 19.6812 28.7131 18.9737 27.5313" stroke="#16A6B7" stroke-width="1.5" stroke-linecap="round" stroke-linejoin="round"/>
<path d="M28.625 16.9577V14.7702M28.625 14.7702C28.625 8.23977 28.625 4.9731 26.5964 2.94456C24.5679 0.916016 21.3027 0.916016 14.7708 0.916016C8.24041 0.916016 4.97374 0.916016 2.9452 2.94456C0.916656 4.9731 0.916656 8.23831 0.916656 14.7702M28.625 14.7702H0.916656M0.916656 14.7702C0.916656 21.3006 0.916656 24.5673 2.9452 26.5958C4.73457 28.3837 7.48353 28.5952 12.5833 28.6214H14.0417M16.2292 7.47852H22.0625" stroke="#16A6B7" stroke-width="1.5" stroke-linecap="round" stroke-linejoin="round"/>
<path d="M9.30207 9.30208C10.3088 9.30208 11.125 8.48594 11.125 7.47917C11.125 6.4724 10.3088 5.65625 9.30207 5.65625C8.2953 5.65625 7.47916 6.4724 7.47916 7.47917C7.47916 8.48594 8.2953 9.30208 9.30207 9.30208Z" stroke="#16A6B7" stroke-width="1.5" stroke-linecap="round" stroke-linejoin="round"/>
<path d="M9.30207 23.8841C10.3088 23.8841 11.125 23.068 11.125 22.0612C11.125 21.0544 10.3088 20.2383 9.30207 20.2383C8.2953 20.2383 7.47916 21.0544 7.47916 22.0612C7.47916 23.068 8.2953 23.8841 9.30207 23.8841Z" stroke="#16A6B7" stroke-width="1.5" stroke-linecap="round" stroke-linejoin="round"/>
</svg>
