<svg width="25" height="25" viewBox="0 0 25 25" fill="none" xmlns="http://www.w3.org/2000/svg">
<g clip-path="url(#clip0_965_733)">
<path d="M11.0577 -0.03125C9.175 -0.03125 7.6625 1.53317 7.6625 3.42452V3.84471H3.84616C3.31635 3.84471 2.88462 4.27644 2.88462 4.80625V5.76779H1.92308V7.69087H3.84616V22.1139C3.84616 23.6957 5.14904 24.9986 6.73077 24.9986H18.2692C19.851 24.9986 21.1539 23.6957 21.1539 22.1139V7.69087H23.0769V5.76779H22.1154V4.80625C22.1154 4.27644 21.6837 3.84471 21.1539 3.84471H17.3375V3.42356C17.3375 1.53317 15.825 -0.03125 13.9423 -0.03125H11.0577ZM11.0577 1.95144H13.9423C14.7154 1.95144 15.3548 2.58221 15.3548 3.42356V3.84471H9.64423V3.42356C9.64423 2.58221 10.2837 1.9524 11.0567 1.9524L11.0577 1.95144ZM5.76923 7.69087H10.6971C10.8163 7.70337 10.9346 7.72067 11.0577 7.72067H13.9423C14.0654 7.72067 14.1827 7.70337 14.3029 7.69087H19.2308V22.1139C19.2308 22.6553 18.8106 23.0755 18.2692 23.0755H6.73077C6.18943 23.0755 5.76923 22.6553 5.76923 22.1139V7.69087ZM7.69231 9.61394V21.1524H9.61539V9.61394H7.69231ZM11.5385 9.61394V21.1524H13.4615V9.61394H11.5385ZM15.3846 9.61394V21.1524H17.3077V9.61394H15.3846Z" fill="#BE1E2A"/>
</g>
<defs>
<clipPath id="clip0_965_733">
<rect width="25" height="25" fill="white"/>
</clipPath>
</defs>
</svg>
