<svg width="37" height="39" viewBox="0 0 37 39" fill="none" xmlns="http://www.w3.org/2000/svg">
<path d="M19.7188 21.9375V19.5H17.2812V21.9375H2.65625V29.25H5.09375V24.375H17.2812V29.25H19.7188V24.375H31.9062V29.25H34.3438V21.9375H19.7188Z" fill="#16A6B7"/>
<path d="M3.875 39C2.9053 39 1.97532 38.6148 1.28964 37.9291C0.603961 37.2434 0.21875 36.3134 0.21875 35.3438C0.21875 34.3741 0.603961 33.4441 1.28964 32.7584C1.97532 32.0727 2.9053 31.6875 3.875 31.6875C4.8447 31.6875 5.77468 32.0727 6.46036 32.7584C7.14604 33.4441 7.53125 34.3741 7.53125 35.3438C7.53125 36.3134 7.14604 37.2434 6.46036 37.9291C5.77468 38.6148 4.8447 39 3.875 39ZM3.875 34.125C3.55177 34.125 3.24177 34.2534 3.01321 34.482C2.78465 34.7105 2.65625 35.0205 2.65625 35.3438C2.65625 35.667 2.78465 35.977 3.01321 36.2055C3.24177 36.4341 3.55177 36.5625 3.875 36.5625C4.19823 36.5625 4.50823 36.4341 4.73679 36.2055C4.96535 35.977 5.09375 35.667 5.09375 35.3438C5.09375 35.0205 4.96535 34.7105 4.73679 34.482C4.50823 34.2534 4.19823 34.125 3.875 34.125ZM18.5 39C17.5303 39 16.6003 38.6148 15.9146 37.9291C15.229 37.2434 14.8438 36.3134 14.8438 35.3438C14.8438 34.3741 15.229 33.4441 15.9146 32.7584C16.6003 32.0727 17.5303 31.6875 18.5 31.6875C19.4697 31.6875 20.3997 32.0727 21.0854 32.7584C21.771 33.4441 22.1562 34.3741 22.1562 35.3438C22.1562 36.3134 21.771 37.2434 21.0854 37.9291C20.3997 38.6148 19.4697 39 18.5 39ZM18.5 34.125C18.1768 34.125 17.8668 34.2534 17.6382 34.482C17.4097 34.7105 17.2812 35.0205 17.2812 35.3438C17.2812 35.667 17.4097 35.977 17.6382 36.2055C17.8668 36.4341 18.1768 36.5625 18.5 36.5625C18.8232 36.5625 19.1332 36.4341 19.3618 36.2055C19.5903 35.977 19.7188 35.667 19.7188 35.3438C19.7188 35.0205 19.5903 34.7105 19.3618 34.482C19.1332 34.2534 18.8232 34.125 18.5 34.125ZM33.125 39C32.1553 39 31.2253 38.6148 30.5396 37.9291C29.854 37.2434 29.4688 36.3134 29.4688 35.3438C29.4688 34.3741 29.854 33.4441 30.5396 32.7584C31.2253 32.0727 32.1553 31.6875 33.125 31.6875C34.0947 31.6875 35.0247 32.0727 35.7104 32.7584C36.396 33.4441 36.7812 34.3741 36.7812 35.3438C36.7812 36.3134 36.396 37.2434 35.7104 37.9291C35.0247 38.6148 34.0947 39 33.125 39ZM33.125 34.125C32.8018 34.125 32.4918 34.2534 32.2632 34.482C32.0347 34.7105 31.9062 35.0205 31.9062 35.3438C31.9062 35.667 32.0347 35.977 32.2632 36.2055C32.4918 36.4341 32.8018 36.5625 33.125 36.5625C33.4482 36.5625 33.7582 36.4341 33.9868 36.2055C34.2153 35.977 34.3438 35.667 34.3438 35.3438C34.3438 35.0205 34.2153 34.7105 33.9868 34.482C33.7582 34.2534 33.4482 34.125 33.125 34.125ZM27.0312 9.75V7.3125H24.4719C24.3141 6.55132 24.0121 5.82737 23.5822 5.17969L25.3981 3.36375L23.6675 1.63313L21.8516 3.44906C21.2039 3.01918 20.4799 2.71718 19.7188 2.55937V0H17.2812V2.55937C16.5201 2.71718 15.7961 3.01918 15.1484 3.44906L13.3325 1.63313L11.6019 3.36375L13.4178 5.17969C12.9879 5.82737 12.6859 6.55132 12.5281 7.3125H9.96875V9.75H12.5281C12.6859 10.5112 12.9879 11.2351 13.4178 11.8828L11.6019 13.6987L13.3203 15.4172L15.1362 13.6012C15.7867 14.0369 16.515 14.3431 17.2812 14.5031V17.0625H19.7188V14.5031C20.4799 14.3453 21.2039 14.0433 21.8516 13.6134L23.6675 15.4294L25.3859 13.7109L23.5822 11.8828C24.0121 11.2351 24.3141 10.5112 24.4719 9.75H27.0312ZM18.5 12.1875C18.0199 12.1875 17.5444 12.0929 17.1008 11.9092C16.6572 11.7254 16.2542 11.4561 15.9146 11.1166C15.5751 10.7771 15.3058 10.374 15.1221 9.93044C14.9383 9.48684 14.8438 9.0114 14.8438 8.53125C14.8438 8.0511 14.9383 7.57566 15.1221 7.13206C15.3058 6.68847 15.5751 6.28541 15.9146 5.94589C16.2542 5.60638 16.6572 5.33706 17.1008 5.15332C17.5444 4.96957 18.0199 4.875 18.5 4.875C19.4697 4.875 20.3997 5.26021 21.0854 5.94589C21.771 6.63157 22.1562 7.56155 22.1562 8.53125C22.1562 9.50095 21.771 10.4309 21.0854 11.1166C20.3997 11.8023 19.4697 12.1875 18.5 12.1875Z" fill="#16A6B7"/>
<path d="M18.5 9.74974C18.1768 9.74974 17.8668 9.62134 17.6382 9.39278C17.4096 9.16422 17.2812 8.85423 17.2812 8.53099C17.2754 8.44985 17.2754 8.36839 17.2812 8.28724C17.2955 8.21114 17.3202 8.13733 17.3544 8.06787C17.3802 7.98984 17.4171 7.91595 17.4641 7.84849C17.5099 7.78525 17.5587 7.72424 17.6103 7.66568C17.724 7.55191 17.8613 7.46454 18.0125 7.40974C18.2344 7.31641 18.4791 7.29091 18.7155 7.33646C18.9519 7.38201 19.1695 7.49657 19.3409 7.66568L19.4872 7.84849C19.5328 7.91671 19.5697 7.99042 19.5969 8.06787C19.6498 8.13342 19.6911 8.20764 19.7187 8.28724C19.725 8.36837 19.725 8.44986 19.7187 8.53099C19.7187 8.85423 19.5903 9.16422 19.3618 9.39278C19.1332 9.62134 18.8232 9.74974 18.5 9.74974Z" fill="#16A6B7"/>
</svg>
