<svg width="40" height="42" viewBox="0 0 40 42" fill="none" xmlns="http://www.w3.org/2000/svg">
<path d="M25.4565 1.73784C25.6411 1.79465 25.6411 1.79465 25.8305 1.85303C30.4035 3.30952 34.2222 6.21776 36.818 10.259C36.9301 10.4326 37.0421 10.6062 37.1573 10.7845C38.0568 12.2646 38.6706 13.8158 39.185 15.4664C39.2213 15.58 39.256 15.6936 39.2939 15.8119C40.217 18.8985 40.2344 22.9539 39.3428 26.0389C39.2971 26.203 39.2971 26.203 39.2497 26.3719C37.7664 31.6203 34.2806 35.9266 29.5388 38.5997C28.0775 39.3919 26.5816 39.9552 24.9831 40.3986C24.7969 40.4523 24.6123 40.5059 24.4197 40.5612C19.1792 41.8046 13.59 40.6211 9.04537 37.8739C4.50549 34.8741 1.41736 30.3011 0.278049 24.9927C0.0271488 23.6735 -0.00598907 22.3669 0.00190089 21.0288C0.00190089 20.9168 0.00190089 20.8047 0.00190089 20.6895C0.00979085 19.0626 0.0681761 17.5162 0.524216 15.9398C0.569978 15.7757 0.569977 15.7757 0.617317 15.6068C2.09116 10.3931 5.52645 6.10572 10.2462 3.45312C14.7403 0.996183 20.5158 0.185094 25.4565 1.73784ZM6.43222 8.96189C2.93065 13.0221 1.70455 17.614 1.94441 22.8829C2.34048 27.5506 4.87158 31.8759 8.37473 34.8946C12.3828 38.1374 17.1089 39.3919 22.1995 38.9453C26.9666 38.363 31.2414 35.7672 34.2333 32.0605C37.233 28.0808 38.4165 23.279 37.85 18.3462C37.1526 13.516 34.3737 9.23014 30.5061 6.31402C22.897 1.00092 12.7079 2.15916 6.43222 8.96189Z" fill="white"/>
<path d="M20.5647 6.31402C20.8756 6.77637 20.9166 7.14562 20.8993 7.69476C20.8977 7.821 20.8945 7.94724 20.8914 8.07663C20.8882 8.17289 20.8835 8.26757 20.8803 8.3654C21.0823 8.4017 21.2843 8.43641 21.4926 8.47429C23.1684 8.85932 24.3787 9.7067 25.4565 11.048C26.2739 12.3751 26.9635 13.8758 26.7189 15.4664C26.4632 15.8798 26.4632 15.8798 26.0877 16.0976C25.5954 16.0881 25.5954 16.0881 25.1409 15.9398C24.8 15.4285 24.7669 15.176 24.6975 14.5795C24.4923 13.2572 23.9669 12.2299 22.9317 11.3636C22.2642 10.8981 21.6409 10.5635 20.8803 10.259C20.8803 13.5396 20.8803 16.8203 20.8803 20.2003C21.349 20.3045 21.8176 20.4086 22.3005 20.5159C23.9732 21.0935 25.204 22.3022 26.0088 23.8597C26.8862 25.8101 26.9729 27.639 26.2455 29.6683C25.507 31.2794 24.3156 32.5734 22.6966 33.3087C22.0969 33.5312 21.5084 33.659 20.8803 33.7711C20.8882 33.8658 20.8945 33.962 20.9024 34.0598C20.9482 35.0808 20.9482 35.0808 20.6247 35.6047C20.2491 35.8225 20.2491 35.8225 19.7568 35.8225C19.3023 35.6647 19.3023 35.6647 19.0846 35.4185C18.9425 34.8599 18.9678 34.347 18.9867 33.7711C18.6837 33.7174 18.6837 33.7174 18.3745 33.6622C16.5345 33.2393 15.1238 32.2215 14.1123 30.6151C13.4653 29.3858 12.9825 28.0793 13.1482 26.6701C13.4038 26.2756 13.4038 26.2756 13.7793 26.0389C14.2717 26.0484 14.2717 26.0484 14.7261 26.1967C15.067 26.708 15.1001 26.9605 15.1696 27.5569C15.4236 29.1649 16.11 30.1291 17.4087 31.0885C17.9295 31.2968 18.4502 31.5051 18.9867 31.7197C18.9867 28.4911 18.9867 25.2625 18.9867 21.9361C18.5181 21.832 18.0494 21.7278 17.5665 21.6205C15.9017 21.0462 14.6693 19.8406 13.8582 18.2973C13.0109 16.4179 12.8515 14.5527 13.5805 12.5976C14.3206 10.9391 15.5072 9.59624 17.1657 8.83249C17.7654 8.60526 18.3555 8.47744 18.9867 8.3654C18.9836 8.27073 18.9788 8.17447 18.9757 8.07663C18.9725 7.95039 18.9694 7.82415 18.9678 7.69476C18.9631 7.5701 18.9599 7.44544 18.9552 7.31762C18.9899 6.90576 19.083 6.66117 19.3023 6.31402C19.7694 6.08047 20.0708 6.17989 20.5647 6.31402Z" fill="white"/>
<path d="M18.9867 10.259C18.9867 13.4876 18.9867 16.7161 18.9867 20.0425C17.5713 19.8074 16.6497 19.1021 15.7424 18.0038C15.0197 16.9592 14.7356 15.6179 14.8839 14.3618C15.31 12.6039 16.2237 11.5561 17.7212 10.5951C18.163 10.3474 18.4786 10.259 18.9867 10.259Z" fill="#F2AC57"/>
<path d="M20.8818 22.0957C22.4724 22.4934 23.4618 22.9873 24.3187 24.4059C24.9799 25.6856 25.1708 26.8391 24.8078 28.2404C24.3707 29.5549 23.7017 30.4575 22.545 31.2181C22.1442 31.4059 22.1442 31.4059 20.8818 31.7215C20.8818 28.545 20.8818 25.3685 20.8818 22.0957Z" fill="#F2AC57"/>
</svg>
