<svg width="153" height="198" viewBox="0 0 153 198" fill="none" xmlns="http://www.w3.org/2000/svg">
<path d="M78.7398 51.1206H74.3943L70.0487 51.8504L66.4275 53.3101L63.7719 54.7698L62.3233 55.743L60.392 56.7161L58.4607 58.4191L56.7707 60.6087L54.598 62.7982L52.6666 66.2042L50.7353 72.043L50.011 75.2057L49.7696 77.152V80.0714L50.4939 84.2072L52.4252 90.5326L53.8737 93.452L58.2192 98.3177L59.9092 100.264L61.3577 101.237L67.6346 104.4L70.773 105.616L75.1185 106.346H78.2569L84.051 105.13L88.8793 102.94L93.4663 100.021L95.3976 97.8311L96.8461 95.8848L98.5361 94.1818L101.192 89.3162L102.882 82.5042L103.123 80.3147V76.6654L102.399 73.0161L101.192 67.9072L98.7775 63.5281L96.6047 61.0952L94.1905 57.9325L92.5006 56.4728L87.9137 53.7967L83.0853 51.8504L78.7398 51.1206Z" fill="white" fill-opacity="0.5"/>
<path d="M80.8163 0H73.4694L68.3265 0.366698L62.8163 1.28344L56.2041 2.93358L50.6939 4.40038L45.9184 6.60056L43.7143 7.70066L40.7755 8.9841L38.0204 10.6342L36.3674 11.7343L33.7959 13.2011L31.4082 15.0346L28.8367 16.8681L26.6327 18.8849L24.0612 21.0851L22.0408 23.2853L19.1021 26.2189L17.449 28.4191L15.4286 30.8026L13.5918 33.5529L11.3878 36.6698L10.2857 38.3199L9.18369 40.8868L6.9796 44.9205L5.87755 47.6707L4.59186 51.3377L3.12247 55.188L2.02042 59.0384L1.10205 64.9055L0.367355 70.9561L0.183685 73.1562L0 78.6567V197.817L0.183685 198H28.6531L28.8367 196.167V79.7568L29.0204 74.073L29.5714 69.4893L30.4898 64.1721L31.4082 61.2386L33.0612 57.5716L34.5306 54.638L35.6327 52.6212L38.0204 49.1375L39.8571 46.5706L40.5918 45.8372V45.4705L41.3265 45.1039L42.6123 43.8204L43.5306 42.537L43.898 42.3536V41.9869L44.6327 41.6202L46.6531 39.9701L49.2245 37.9532L51.7959 36.3031L56.0204 33.9196L58.9592 32.8195L65.0204 30.8026L68.8776 29.8859L72.3674 29.3358L75.1225 29.1525H78.6122L82.2857 29.5192L86.3265 30.2526L91.102 31.7194L96.7959 33.7362L98.8163 34.8363L100.653 35.9364L103.041 37.2198L105.429 39.2367L107.633 40.8868L109.837 42.9037L111.306 44.3705L112.959 46.3873L114.429 48.2208L118.469 54.2713L121.592 61.2386L122.878 65.0889L123.612 69.6726L124.163 74.9897V80.3068L123.429 87.2741L122.694 90.9411L121.408 94.6081L119.204 99.5585L117.735 102.492L115.163 106.159L113.694 108.176L112.041 110.193L109.837 112.576L108.184 114.226L103.041 118.26L99.9184 119.91L97.5306 121.377L94.7755 122.477L87.0612 125.044L82.4694 125.961L78.7959 126.327H74.0204L70.5306 125.961L66.8571 125.227L62.6327 123.944L57.4898 122.11H56.7551V155.297L56.9388 155.48H72.9184L82.6531 155.297L87.4286 154.747L92.7551 153.646L100.469 151.63L103.408 150.713L108.184 148.513L112.959 146.129L115.347 144.662L117 143.562L118.837 142.646L120.857 140.995L123.061 139.529L126.184 136.962L129.857 133.661L132.429 130.911L134.449 128.711L136.286 126.327L138.857 123.027L140.694 120.094L142.347 117.893L145.653 111.293L146.571 109.643L148.041 105.976L148.959 103.042L150.429 98.6418L151.531 94.6081L152.265 89.6577L152.816 82.8737L153 79.2068V75.7231L152.633 69.856L151.898 62.8887L150.796 58.1216L147.673 48.4041L146.02 44.7372L144.184 41.2535L142.347 37.5865L140.694 35.3864L138.857 32.4528L137.204 30.4359L135 27.5023L133.347 25.6689L131.327 23.4687L126.735 18.8849L124.163 16.8681L121.776 15.0346L118.653 12.8344L117.551 12.101L115.531 11.0009L113.143 9.53415L110.571 8.06736L108.184 7.15061L106.714 6.23387L102.857 4.58372L100.469 3.85033L92.7551 1.83349L87.4286 0.733396L83.3878 0.183349L80.8163 0Z" fill="white" fill-opacity="0.5"/>
</svg>
