<svg width="46" height="46" viewBox="0 0 46 46" fill="none" xmlns="http://www.w3.org/2000/svg">
<path d="M4.04607 19.8809V29.3183C4.04607 35.2508 4.04607 38.216 5.89453 40.0599C7.74088 41.9037 10.7152 41.9037 16.6618 41.9037H25.0743M12.4565 33.5141H20.8691M36.6398 33.5141H36.6608M36.6398 26.1704C40.7043 26.1704 44 29.396 44 33.3734C44 37.8758 39.5511 40.0872 37.4275 43.4598C36.9759 44.1801 36.3352 44.1801 35.8521 43.4598C33.6634 40.2153 29.2796 37.7813 29.2796 33.3755C29.2796 29.396 32.5753 26.1704 36.6398 26.1704ZM35.1736 2.0056L10.711 2.0623C7.06032 1.8838 6.12349 4.54451 6.12349 5.84232C6.12349 7.00572 5.96595 8.70043 3.7289 11.8861C1.48975 15.0719 1.65779 16.0169 2.9181 18.2219C3.96415 20.0531 6.62761 20.7671 8.01815 20.8889C8.84727 20.93 9.67629 20.8056 10.4568 20.523C11.2373 20.2404 11.9537 19.8052 12.5642 19.2427C13.1747 18.6803 13.667 18.002 14.0124 17.2473C14.3578 16.4926 14.5494 15.6767 14.576 14.8472C16.7647 21.2102 22.9885 21.2102 25.7612 20.4836C28.5381 19.7528 30.9201 17.1446 31.4809 14.8472C31.8086 17.7032 32.8042 19.3685 35.7387 20.513C38.7823 21.6974 41.3975 19.8851 42.7103 18.7238C44.0231 17.5625 44.8654 14.9837 42.5254 12.1486C40.9122 10.1935 40.238 8.35183 40.0174 6.44292C39.8914 5.33621 39.778 4.14761 38.9546 3.39161C37.7531 2.287 36.0285 1.951 35.1736 2.0056Z" stroke="white" stroke-width="3" stroke-linecap="round" stroke-linejoin="round"/>
</svg>
