<svg width="31" height="31" viewBox="0 0 31 31" fill="none" xmlns="http://www.w3.org/2000/svg">
<g clip-path="url(#clip0_503_2255)">
<path d="M20.3438 0.03125L31 5.35938V17.2417L29.0625 16.2729V7.52393L21.3125 11.3989V15.3042L19.375 16.2729V11.3989L11.625 7.52393V10.96L9.6875 9.99121V5.35938L20.3438 0.03125ZM20.3438 9.71875L23.0229 8.37158L16.0146 4.36035L12.8208 5.96484L20.3438 9.71875ZM25.1118 7.34229L27.8667 5.96484L20.3438 2.1958L18.0884 3.33105L25.1118 7.34229ZM17.4375 17.2417L15.5 18.2104V18.1953L9.6875 21.1016V27.9888L15.5 25.0674V27.2471L8.71875 30.6377L0 26.2632V16.0308L8.71875 11.6714L17.4375 16.0308V17.2417ZM7.75 27.9888V21.1016L1.9375 18.1953V25.0674L7.75 27.9888ZM8.71875 19.4214L14.3042 16.6362L8.71875 13.8359L3.1333 16.6362L8.71875 19.4214ZM17.4375 19.4062L24.2188 16.0156L31 19.4062V27.3833L24.2188 30.7739L17.4375 27.3833V19.4062ZM23.25 28.125V23.5083L19.375 21.5708V26.1875L23.25 28.125ZM29.0625 26.1875V21.5708L25.1875 23.5083V28.125L29.0625 26.1875ZM24.2188 21.8281L27.8667 19.9966L24.2188 18.1802L20.5708 19.9966L24.2188 21.8281Z" fill="#16A6B7"/>
</g>
<defs>
<clipPath id="clip0_503_2255">
<rect width="31" height="31" fill="white"/>
</clipPath>
</defs>
</svg>
