<svg width="29" height="29" viewBox="0 0 29 29" fill="none" xmlns="http://www.w3.org/2000/svg">
<path d="M3.5 11.75V23.4375M9 11.75V23.4375M13.125 23.4375H4.875C3.78098 23.4375 2.73177 23.8721 1.95818 24.6457C1.1846 25.4193 0.75 26.4685 0.75 27.5625C0.75 27.7448 0.822433 27.9197 0.951364 28.0486C1.0803 28.1776 1.25516 28.25 1.4375 28.25H13.125M27.5625 17.9375L17.9375 27.5625M0.75 9.78375C0.75 8.13787 1.41275 7.13 2.785 6.3655L8.43625 3.22087C11.3966 1.575 12.8775 0.75 14.5 0.75C16.1225 0.75 17.6034 1.575 20.5637 3.22087L26.215 6.3655C27.5859 7.13 28.25 8.13787 28.25 9.78375C28.25 10.2292 28.25 10.4534 28.2019 10.6362C27.9461 11.5987 27.073 11.7514 26.2301 11.7514H2.76988C1.927 11.7514 1.05525 11.6001 0.798125 10.6362C0.75 10.452 0.75 10.2292 0.75 9.78375Z" stroke="#16A6B7" stroke-width="1.5" stroke-linecap="round" stroke-linejoin="round"/>
<path d="M18.9688 20C19.5383 20 20 19.5383 20 18.9688C20 18.3992 19.5383 17.9375 18.9688 17.9375C18.3992 17.9375 17.9375 18.3992 17.9375 18.9688C17.9375 19.5383 18.3992 20 18.9688 20Z" stroke="#16A6B7" stroke-width="1.5" stroke-linecap="round" stroke-linejoin="round"/>
<path d="M26.5312 27.5625C27.1008 27.5625 27.5625 27.1008 27.5625 26.5312C27.5625 25.9617 27.1008 25.5 26.5312 25.5C25.9617 25.5 25.5 25.9617 25.5 26.5312C25.5 27.1008 25.9617 27.5625 26.5312 27.5625Z" stroke="#16A6B7" stroke-width="1.5" stroke-linecap="round" stroke-linejoin="round"/>
</svg>
