<svg width="48" height="47" viewBox="0 0 48 47" fill="none" xmlns="http://www.w3.org/2000/svg">
<path d="M7.35417 10.0827C7.35417 8.81185 7.86998 7.59307 8.78813 6.69446C9.70628 5.79585 10.9515 5.29102 12.25 5.29102H31.8333C33.1318 5.29102 34.3771 5.79585 35.2952 6.69446C36.2134 7.59307 36.7292 8.81185 36.7292 10.0827V20.6243C36.7292 20.8785 36.626 21.1223 36.4424 21.302C36.2588 21.4817 36.0097 21.5827 35.75 21.5827C35.4903 21.5827 35.2413 21.4817 35.0576 21.302C34.874 21.1223 34.7708 20.8785 34.7708 20.6243V10.0827C34.7708 9.32018 34.4614 8.58892 33.9105 8.04975C33.3596 7.51058 32.6124 7.20768 31.8333 7.20768H12.25C11.4709 7.20768 10.7238 7.51058 10.1729 8.04975C9.62199 8.58892 9.31251 9.32018 9.31251 10.0827V37.6482C9.31251 37.8116 9.35522 37.9723 9.43656 38.115C9.51791 38.2577 9.6352 38.3777 9.77727 38.4636C9.91935 38.5494 10.0815 38.5983 10.2483 38.6055C10.4151 38.6128 10.5811 38.5781 10.7303 38.5049L12.6887 37.5466C13.1765 37.3082 13.7224 37.2074 14.2654 37.2555C14.8084 37.3036 15.3271 37.4986 15.7633 37.8188L17.5375 39.1202C17.707 39.2446 17.9131 39.3118 18.125 39.3118C18.3369 39.3118 18.543 39.2446 18.7125 39.1202L20.4006 37.8801C20.8678 37.5372 21.4288 37.3383 22.0121 37.309C22.5953 37.2796 23.1742 37.4211 23.6749 37.7153L24.9929 38.4896C25.2157 38.6202 25.3764 38.8322 25.4395 39.0787C25.5027 39.3253 25.4632 39.5864 25.3297 39.8044C25.1962 40.0225 24.9797 40.1798 24.7278 40.2416C24.4758 40.3034 24.2091 40.2647 23.9863 40.1341L22.6664 39.3598C22.4997 39.2617 22.3069 39.2144 22.1126 39.2239C21.9184 39.2335 21.7314 39.2995 21.5756 39.4134L19.8875 40.6535C19.379 41.0268 18.7606 41.2285 18.125 41.2285C17.4894 41.2285 16.871 41.0268 16.3625 40.6535L14.5883 39.3502C14.4427 39.244 14.2698 39.1795 14.0889 39.1639C13.9081 39.1484 13.7263 39.1823 13.564 39.262L11.6057 40.2203C11.1578 40.4396 10.66 40.5432 10.1597 40.5211C9.65939 40.4991 9.17313 40.3523 8.74713 40.0945C8.32112 39.8368 7.96952 39.4768 7.72572 39.0486C7.48192 38.6204 7.35402 38.1384 7.35417 37.6482V10.0827Z" fill="#16A6B7"/>
<path d="M13.2292 13.9173C13.2292 13.6632 13.3323 13.4194 13.516 13.2397C13.6996 13.06 13.9486 12.959 14.2083 12.959H26.9375C27.1972 12.959 27.4463 13.06 27.6299 13.2397C27.8135 13.4194 27.9167 13.6632 27.9167 13.9173C27.9167 14.1715 27.8135 14.4152 27.6299 14.595C27.4463 14.7747 27.1972 14.8757 26.9375 14.8757H14.2083C13.9486 14.8757 13.6996 14.7747 13.516 14.595C13.3323 14.4152 13.2292 14.1715 13.2292 13.9173ZM13.2292 19.6673C13.2292 19.4132 13.3323 19.1694 13.516 18.9897C13.6996 18.81 13.9486 18.709 14.2083 18.709H29.875C30.1347 18.709 30.3838 18.81 30.5674 18.9897C30.751 19.1694 30.8542 19.4132 30.8542 19.6673C30.8542 19.9215 30.751 20.1652 30.5674 20.345C30.3838 20.5247 30.1347 20.6257 29.875 20.6257H14.2083C13.9486 20.6257 13.6996 20.5247 13.516 20.345C13.3323 20.1652 13.2292 19.9215 13.2292 19.6673ZM13.2292 25.4173C13.2292 25.1632 13.3323 24.9194 13.516 24.7397C13.6996 24.56 13.9486 24.459 14.2083 24.459H21.0625C21.3222 24.459 21.5713 24.56 21.7549 24.7397C21.9385 24.9194 22.0417 25.1632 22.0417 25.4173C22.0417 25.6715 21.9385 25.9152 21.7549 26.095C21.5713 26.2747 21.3222 26.3757 21.0625 26.3757H14.2083C13.9486 26.3757 13.6996 26.2747 13.516 26.095C13.3323 25.9152 13.2292 25.6715 13.2292 25.4173ZM13.2292 31.1673C13.2292 30.9132 13.3323 30.6694 13.516 30.4897C13.6996 30.31 13.9486 30.209 14.2083 30.209H21.0625C21.3222 30.209 21.5713 30.31 21.7549 30.4897C21.9385 30.6694 22.0417 30.9132 22.0417 31.1673C22.0417 31.4215 21.9385 31.6652 21.7549 31.845C21.5713 32.0247 21.3222 32.1257 21.0625 32.1257H14.2083C13.9486 32.1257 13.6996 32.0247 13.516 31.845C13.3323 31.6652 13.2292 31.4215 13.2292 31.1673Z" fill="#16A6B7"/>
<path d="M39.6266 36.7388L37.8762 38.568L30.8704 31.2549L32.6216 29.4258L39.6266 36.7388Z" fill="white"/>
<path fill-rule="evenodd" clip-rule="evenodd" d="M42.5 32.5C42.5 34.8869 41.5518 37.1761 39.864 38.864C38.1761 40.5518 35.8869 41.5 33.5 41.5C31.1131 41.5 28.8239 40.5518 27.136 38.864C25.4482 37.1761 24.5 34.8869 24.5 32.5C24.5 30.1131 25.4482 27.8239 27.136 26.136C28.8239 24.4482 31.1131 23.5 33.5 23.5C35.8869 23.5 38.1761 24.4482 39.864 26.136C41.5518 27.8239 42.5 30.1131 42.5 32.5ZM31.6247 28.9884L30.566 30.0455H33.9091C35.3196 30.0455 36.6723 30.6058 37.6696 31.6031C38.667 32.6005 39.2273 33.9532 39.2273 35.3636V35.7727C39.2273 35.9897 39.1411 36.1978 38.9876 36.3513C38.8342 36.5047 38.6261 36.5909 38.4091 36.5909C38.1921 36.5909 37.984 36.5047 37.8305 36.3513C37.6771 36.1978 37.5909 35.9897 37.5909 35.7727V35.3636C37.5909 34.8801 37.4957 34.4014 37.3106 33.9547C37.1256 33.508 36.8544 33.1021 36.5125 32.7602C36.1706 32.4183 35.7648 32.1471 35.3181 31.9621C34.8714 31.7771 34.3926 31.6818 33.9091 31.6818H30.566L31.6247 32.7389C31.7784 32.8925 31.8647 33.1009 31.8647 33.3182C31.8647 33.5355 31.7784 33.7438 31.6247 33.8975C31.4711 34.0511 31.2627 34.1374 31.0455 34.1374C30.8282 34.1374 30.6198 34.0511 30.4662 33.8975L28.0116 31.4429C27.9354 31.3669 27.875 31.2766 27.8337 31.1772C27.7925 31.0778 27.7713 30.9713 27.7713 30.8636C27.7713 30.756 27.7925 30.6495 27.8337 30.5501C27.875 30.4507 27.9354 30.3604 28.0116 30.2844L30.4662 27.8298C30.6198 27.6762 30.8282 27.5899 31.0455 27.5899C31.2627 27.5899 31.4711 27.6762 31.6247 27.8298C31.7784 27.9835 31.8647 28.1918 31.8647 28.4091C31.8647 28.6264 31.7784 28.8347 31.6247 28.9884Z" fill="#16A6B7"/>
</svg>
