<svg width="25" height="24" viewBox="0 0 25 24" fill="none" xmlns="http://www.w3.org/2000/svg">
<path d="M0.801021 12.0005C0.801482 12.1982 0.858391 12.3917 0.965064 12.5582C1.07174 12.7248 1.22374 12.8574 1.40319 12.9404L23.4342 23.2212C23.6264 23.3077 23.8403 23.3337 24.0476 23.2957C24.2549 23.2577 24.4458 23.1575 24.5948 23.0085C24.7438 22.8595 24.844 22.6686 24.882 22.4613C24.92 22.254 24.894 22.0401 24.8075 21.8479L21.0183 13.0208L11.6918 13.0357L11.6918 10.9648L21.0478 10.9645L24.83 2.12994C24.9122 1.93887 24.9352 1.72752 24.8959 1.52327C24.8566 1.31901 24.7569 1.13125 24.6097 0.984318C24.4582 0.838958 24.2663 0.742907 24.0592 0.708826C23.852 0.674745 23.6394 0.704233 23.4494 0.793405L1.41791 11.0751C1.23795 11.155 1.08441 11.2844 0.975181 11.4483C0.865957 11.6121 0.805558 11.8036 0.801021 12.0005Z" fill="white"/>
</svg>
