<svg width="29" height="31" viewBox="0 0 29 31" fill="none" xmlns="http://www.w3.org/2000/svg">
<path d="M14.5 19.875C16.9162 19.875 18.875 17.9162 18.875 15.5C18.875 13.0838 16.9162 11.125 14.5 11.125C12.0838 11.125 10.125 13.0838 10.125 15.5C10.125 17.9162 12.0838 19.875 14.5 19.875Z" stroke="#16A6B7" stroke-width="1.5"/>
<path d="M17.0739 1.13768C16.5387 0.916016 15.8592 0.916016 14.5 0.916016C13.1408 0.916016 12.4612 0.916016 11.926 1.13768C11.5719 1.28426 11.2502 1.4992 10.9792 1.7702C10.7082 2.04119 10.4932 2.36295 10.3467 2.71706C10.2125 3.04227 10.1585 3.42289 10.1381 3.9756C10.1286 4.37508 10.0179 4.76562 9.81646 5.1107C9.61498 5.45578 9.32926 5.74411 8.98603 5.94872C8.6372 6.14381 8.24459 6.24721 7.84493 6.24925C7.44526 6.25129 7.05162 6.1519 6.70082 5.96039C6.21082 5.70081 5.85644 5.55789 5.50499 5.51122C4.73837 5.41041 3.96309 5.61813 3.34957 6.08872C2.89165 6.4431 2.5504 7.03081 1.87082 8.20768C1.19124 9.38456 0.849986 9.97227 0.775611 10.5483C0.725495 10.9281 0.750702 11.3141 0.849791 11.6842C0.94888 12.0543 1.11991 12.4012 1.35311 12.7052C1.56894 12.9852 1.87082 13.22 2.33894 13.5146C3.02874 13.9477 3.47207 14.6856 3.47207 15.4993C3.47207 16.3131 3.02874 17.051 2.33894 17.4827C1.87082 17.7787 1.56749 18.0135 1.35311 18.2935C1.11991 18.5975 0.94888 18.9444 0.849791 19.3145C0.750702 19.6846 0.725495 20.0706 0.775611 20.4504C0.851444 21.025 1.19124 21.6141 1.86936 22.791C2.5504 23.9679 2.89019 24.5556 3.34957 24.91C3.65354 25.1432 4.00047 25.3142 4.37056 25.4133C4.74064 25.5124 5.12662 25.5376 5.50644 25.4875C5.85644 25.4408 6.21082 25.2979 6.70082 25.0383C7.05162 24.8468 7.44526 24.7474 7.84493 24.7495C8.24459 24.7515 8.6372 24.8549 8.98603 25.05C9.6904 25.4583 10.1089 26.2094 10.1381 27.0231C10.1585 27.5773 10.211 27.9564 10.3467 28.2816C10.4932 28.6358 10.7082 28.9575 10.9792 29.2285C11.2502 29.4995 11.5719 29.7144 11.926 29.861C12.4612 30.0827 13.1408 30.0827 14.5 30.0827C15.8592 30.0827 16.5387 30.0827 17.0739 29.861C17.4281 29.7144 17.7498 29.4995 18.0208 29.2285C18.2918 28.9575 18.5067 28.6358 18.6533 28.2816C18.7875 27.9564 18.8414 27.5773 18.8619 27.0231C18.891 26.2094 19.3096 25.4568 20.0139 25.05C20.3628 24.8549 20.7554 24.7515 21.155 24.7495C21.5547 24.7474 21.9484 24.8468 22.2992 25.0383C22.7892 25.2979 23.1435 25.4408 23.4935 25.4875C23.8734 25.5376 24.2593 25.5124 24.6294 25.4133C24.9995 25.3142 25.3464 25.1432 25.6504 24.91C26.1098 24.5571 26.4496 23.9679 27.1292 22.791C27.8087 21.6141 28.15 21.0264 28.2244 20.4504C28.2745 20.0706 28.2493 19.6846 28.1502 19.3145C28.0511 18.9444 27.8801 18.5975 27.6469 18.2935C27.431 18.0135 27.1292 17.7787 26.661 17.4841C26.3197 17.2762 26.0367 16.985 25.8385 16.6379C25.6403 16.2908 25.5334 15.899 25.5279 15.4993C25.5279 14.6856 25.9712 13.9477 26.661 13.516C27.1292 13.22 27.4325 12.9852 27.6469 12.7052C27.8801 12.4012 28.0511 12.0543 28.1502 11.6842C28.2493 11.3141 28.2745 10.9281 28.2244 10.5483C28.1485 9.97372 27.8087 9.38456 27.1306 8.20768C26.4496 7.03081 26.1098 6.4431 25.6504 6.08872C25.3464 5.85552 24.9995 5.68449 24.6294 5.5854C24.2593 5.48632 23.8734 5.46111 23.4935 5.51122C23.1435 5.55789 22.7892 5.70081 22.2977 5.96039C21.9471 6.15164 21.5537 6.25088 21.1543 6.24884C20.7549 6.2468 20.3626 6.14355 20.0139 5.94872C19.6707 5.74411 19.385 5.45578 19.1835 5.1107C18.982 4.76562 18.8714 4.37508 18.8619 3.9756C18.8414 3.42143 18.7889 3.04227 18.6533 2.71706C18.5067 2.36295 18.2918 2.04119 18.0208 1.7702C17.7498 1.4992 17.4281 1.28426 17.0739 1.13768Z" stroke="#16A6B7" stroke-width="1.5"/>
</svg>
