<svg width="39" height="39" viewBox="0 0 39 39" fill="none" xmlns="http://www.w3.org/2000/svg">
<path d="M34.9245 26.3445H26.091C25.5738 26.3445 25.0778 26.5499 24.7121 26.9156C24.3464 27.2813 24.141 27.7773 24.141 28.2945C24.141 28.8117 24.3464 29.3077 24.7121 29.6734C25.0778 30.0391 25.5738 30.2445 26.091 30.2445C27.8509 30.2445 28.6184 32.2385 27.0803 33.0936C25.7494 33.8335 24.3101 34.3787 22.8056 34.7049C19.7651 35.3642 16.5969 35.0992 13.7081 33.9441C10.8193 32.789 8.34184 30.7965 6.5941 28.2227C4.84636 25.6488 3.90814 22.6112 3.9 19.5C3.9 18.9828 3.69455 18.4868 3.32886 18.1211C2.96316 17.7554 2.46717 17.55 1.95 17.55C1.43283 17.55 0.936838 17.7554 0.571142 18.1211C0.205446 18.4868 0 18.9828 0 19.5C0.010309 23.308 1.13533 27.0296 3.23623 30.2056C5.33712 33.3815 8.32195 35.8729 11.8223 37.3722C15.3227 38.8715 19.1855 39.3131 22.934 38.6424C25.544 38.1755 28.0191 37.1836 30.2146 35.7397C31.3033 35.0238 32.916 35.747 32.916 37.05C32.916 37.5672 33.1214 38.0632 33.4871 38.4289C33.8528 38.7946 34.3488 39 34.866 39C35.3832 39 35.8792 38.7946 36.2449 38.4289C36.6106 38.0632 36.816 37.5672 36.816 37.05V28.275C36.8112 27.7712 36.6116 27.2888 36.2589 26.9289C35.9063 26.569 35.4281 26.3596 34.9245 26.3445ZM19.5 0C15.6599 0.0109532 11.9357 1.15449 8.77697 3.24959C7.69468 3.96745 6.084 3.24872 6.084 1.95C6.084 1.43283 5.87855 0.936838 5.51286 0.571142C5.14716 0.205446 4.65117 0 4.134 0C3.61683 0 3.12084 0.205446 2.75514 0.571142C2.38945 0.936838 2.184 1.43283 2.184 1.95V10.725C2.184 11.2422 2.38945 11.7382 2.75514 12.1039C3.12084 12.4696 3.61683 12.675 4.134 12.675H12.909C13.4262 12.675 13.9222 12.4696 14.2879 12.1039C14.6536 11.7382 14.859 11.2422 14.859 10.725C14.859 10.2078 14.6536 9.71184 14.2879 9.34614C13.9222 8.98045 13.4262 8.775 12.909 8.775C11.1491 8.775 10.3815 6.78102 11.9197 5.92583C13.2492 5.18671 14.6868 4.64191 16.1897 4.31556C19.2284 3.6557 22.3949 3.919 25.2829 5.07168C28.1709 6.22436 30.6485 8.21381 32.3978 10.7847C34.147 13.3555 35.088 16.3905 35.1 19.5C35.1 20.0172 35.3054 20.5132 35.6711 20.8789C36.0368 21.2446 36.5328 21.45 37.05 21.45C37.5672 21.45 38.0632 21.2446 38.4289 20.8789C38.7946 20.5132 39 20.0172 39 19.5C39 16.9392 38.4956 14.4035 37.5157 12.0377C36.5357 9.67182 35.0993 7.52216 33.2886 5.71142C31.4778 3.90068 29.3282 2.46432 26.9623 1.48435C24.5965 0.504382 22.0608 0 19.5 0Z" fill="#0C7683"/>
</svg>
