<svg width="40" height="40" viewBox="0 0 40 40" fill="none" xmlns="http://www.w3.org/2000/svg">
<g clip-path="url(#clip0_389_3241)">
<path d="M13.3594 0.000747058C13.582 0.172622 13.6891 0.393716 13.8164 0.63981C13.857 0.718716 13.8977 0.797622 13.9399 0.878872C13.982 0.961685 14.0242 1.04372 14.0672 1.12887C14.1313 1.25153 14.1313 1.25153 14.1961 1.37731C14.3617 1.6984 14.5266 2.02106 14.6875 2.3445C15.1 2.27106 15.5117 2.19528 15.9227 2.11403C15.9906 2.10075 16.0586 2.08668 16.1289 2.0734C16.2633 2.04684 16.3969 2.02028 16.5305 1.99293C17.6602 1.77184 18.7781 1.68981 19.9266 1.69528C19.9899 1.69528 20.0524 1.69528 20.1172 1.69528C24.4109 1.71403 28.5125 3.1945 31.875 5.86012C31.9172 5.89293 31.9594 5.92575 32.0024 5.96012C33.1984 6.90231 34.3219 8.01325 35.2172 9.24606C35.3149 9.37965 35.4164 9.51012 35.5188 9.63981C37.2852 11.9172 38.3656 14.689 38.9063 17.5007C38.9188 17.5625 38.932 17.6242 38.9453 17.6875C39.5313 20.5789 39.2031 23.764 38.3594 26.5632C38.3399 26.6273 38.3211 26.6922 38.3016 26.7586C37.7922 28.4273 37.0039 30.0476 36.0156 31.4851C35.9844 31.532 35.9524 31.5781 35.9203 31.6257C35.4484 32.3203 34.9297 32.9656 34.375 33.5945C34.3234 33.6531 34.3235 33.6531 34.2711 33.7132C31.5274 36.839 27.8094 38.8257 23.7695 39.7078C23.7164 39.7195 23.6625 39.7312 23.6078 39.7437C22.4289 39.9859 21.2484 40.0328 20.0484 40.0304C19.9734 40.0297 19.8984 40.0297 19.8211 40.0297C18.5805 40.0265 17.3875 39.9539 16.1719 39.6882C16.0945 39.6718 16.018 39.6547 15.9383 39.6375C13.0969 38.9976 10.4828 37.7445 8.20313 35.9382C8.12188 35.875 8.04063 35.8109 7.95704 35.7461C6.74063 34.7554 5.60548 33.6179 4.68751 32.3445C4.62267 32.2586 4.55782 32.1726 4.49298 32.0867C2.67188 29.6507 1.51563 26.7406 1.01563 23.7507C1.00157 23.6679 1.00157 23.6679 0.986729 23.5836C0.565635 21.0992 0.439853 17.4211 1.7672 15.1617C2.08517 14.7218 2.58751 14.3945 3.12501 14.2976C3.83282 14.2289 4.44923 14.3531 5.02423 14.7859C5.43829 15.2093 5.77423 15.7172 5.7836 16.3281C5.75235 16.7812 5.64845 17.2195 5.55157 17.6617C4.72345 21.5086 5.46017 25.4531 7.54142 28.7867C9.72579 32.1226 13.0406 34.4773 16.9531 35.3132C20.7016 36.0789 24.7438 35.3976 27.9688 33.3086C28.8125 32.7437 29.582 32.1117 30.3125 31.407C30.3828 31.3414 30.4531 31.2765 30.5258 31.2086C32.9883 28.8562 34.6078 25.2211 34.7102 21.8218C34.7164 21.5047 34.718 21.1875 34.7172 20.8695C34.7164 20.8031 34.7164 20.7359 34.7164 20.6672C34.7039 16.8195 33.2117 13.3086 30.5469 10.5476C30.4813 10.4773 30.4164 10.407 30.3484 10.3343C28.1328 8.01481 24.9406 6.61481 21.7969 6.17262C21.7453 6.16559 21.6938 6.15778 21.6406 6.14997C20.1938 5.96481 18.6984 6.05622 17.2664 6.307C17.1094 6.32887 17.1094 6.32887 16.7969 6.32887C16.825 6.38278 16.8531 6.4359 16.882 6.49137C17.0078 6.73356 17.1344 6.97575 17.2609 7.21793C17.3266 7.3445 17.3266 7.3445 17.3945 7.4734C17.4359 7.55387 17.4781 7.63434 17.5219 7.71715C17.5602 7.79215 17.5992 7.86637 17.6391 7.94293C17.7938 8.23981 17.8531 8.40934 17.8125 8.75075C17.6766 8.92731 17.6766 8.92731 17.4219 9.06325C17.0914 9.07731 16.7695 9.03122 16.4422 8.98825C16.3445 8.97653 16.2461 8.96481 16.1453 8.95309C15.8797 8.92106 15.6149 8.88825 15.35 8.85465C15.0758 8.82028 14.8016 8.78747 14.5266 8.75387C14.1953 8.71403 13.8641 8.67418 13.532 8.63278C12.8633 8.54997 12.1938 8.47262 11.5234 8.39997C11.368 8.38278 11.2117 8.36637 11.0563 8.34918C10.8399 8.32497 10.6234 8.30153 10.4078 8.27965C10.2125 8.25856 10.0164 8.23668 9.8211 8.21481C9.73751 8.20621 9.73751 8.20622 9.65157 8.19762C9.32579 8.16012 9.08985 8.09293 8.82813 7.89137C8.71017 7.59215 8.71173 7.44528 8.82501 7.1445C8.94063 6.90544 9.06563 6.6734 9.19454 6.44137C9.24063 6.35465 9.28751 6.26793 9.33517 6.17965C9.47735 5.91559 9.6211 5.65387 9.76563 5.39137C9.84454 5.24684 9.92267 5.10231 10.0008 4.95778C10.1516 4.68043 10.3031 4.40309 10.4555 4.12653C10.7149 3.65309 10.9688 3.17731 11.2227 2.70153C11.5891 2.01637 11.9555 1.33122 12.3289 0.649966C12.3766 0.563247 12.3766 0.563247 12.4242 0.474185C12.6836 0.00543457 12.8219 -0.0367529 13.3594 0.000747058ZM12.9688 1.56325C12.3688 2.68043 11.7703 3.7984 11.175 4.91715C11.118 5.0234 11.0617 5.12965 11.0047 5.2359C10.6602 5.882 10.3234 6.53122 10 7.18825C10.4633 7.29293 10.9219 7.36403 11.3938 7.41325C11.9719 7.47497 12.5492 7.5445 13.1258 7.61872C13.207 7.62887 13.2875 7.63903 13.3703 7.64997C13.7039 7.69215 14.0375 7.73512 14.3711 7.77809C14.6188 7.80934 14.8656 7.84137 15.1133 7.87262C15.1883 7.882 15.2625 7.89215 15.3399 7.90231C15.725 7.95075 16.0961 7.98043 16.4844 7.9695C16.1719 7.31715 16.1719 7.31715 15.7906 6.70465C15.6375 6.47184 15.6063 6.31481 15.6149 6.03668C15.6164 5.97418 15.618 5.91168 15.6195 5.84684C15.6211 5.79997 15.6227 5.75231 15.625 5.70387C16.1977 5.5859 16.7703 5.47106 17.3445 5.35934C17.5211 5.32418 17.6977 5.28903 17.8742 5.25231C21.6672 4.58043 25.8766 5.81793 28.9899 7.98356C29.3656 8.25075 29.7289 8.52731 30.0781 8.82887C30.1383 8.88043 30.1984 8.932 30.2602 8.98512C30.4633 9.16325 30.6617 9.34684 30.8594 9.532C30.9008 9.57028 30.9414 9.60856 30.9836 9.6484C32.0203 10.6257 32.8977 11.7242 33.5938 12.9695C33.643 13.0562 33.643 13.0562 33.693 13.1453C35.8234 16.9406 36.2008 21.2179 35.0656 25.3984C34.8969 25.9836 34.6883 26.5492 34.4531 27.1101C34.4297 27.1656 34.407 27.2211 34.3828 27.2781C33.7102 28.8625 32.7227 30.2906 31.5586 31.5523C31.4352 31.6875 31.3195 31.825 31.2063 31.9687C30.9578 32.2554 30.6805 32.4906 30.3906 32.7351C30.325 32.7929 30.2594 32.8507 30.1914 32.9109C28.65 34.2429 26.8563 35.2304 24.9219 35.8601C24.8391 35.8875 24.8391 35.8875 24.7547 35.9156C23.443 36.3461 22.0852 36.6148 20.7031 36.6414C20.6375 36.6429 20.5719 36.6445 20.5039 36.6461C19.5414 36.6672 18.607 36.6367 17.6563 36.4851C17.5945 36.4757 17.5336 36.4664 17.4703 36.457C15.2016 36.1078 12.9649 35.2461 11.0938 33.907C11.0125 33.8492 10.9313 33.7914 10.8477 33.732C10.393 33.4007 9.96798 33.0468 9.5547 32.6656C9.39376 32.5179 9.2297 32.3773 9.06251 32.2367C7.57735 30.9328 6.53751 29.1922 5.70313 27.4226C5.66173 27.3343 5.61954 27.2461 5.57657 27.1554C5.00938 25.9 4.67657 24.5593 4.45313 23.2039C4.44376 23.1476 4.43438 23.0914 4.42501 23.0343C4.12345 21.1062 4.20313 19.0445 4.6961 17.1554C4.80313 16.725 4.87188 16.2679 4.69454 15.8484C4.48907 15.5359 4.26563 15.3547 3.90626 15.2351C3.48595 15.1882 3.22813 15.2257 2.86251 15.4336C2.4586 15.7937 2.33595 16.2367 2.22188 16.7437C2.19688 16.8515 2.19688 16.8515 2.17188 16.9609C1.18673 21.4922 1.97501 26.3711 4.44845 30.3086C5.58517 32.0703 6.93438 33.7093 8.59376 35.0007C8.64298 35.0398 8.69142 35.0781 8.7422 35.1179C9.49376 35.7156 10.2539 36.2539 11.0938 36.7195C11.1484 36.7507 11.2039 36.782 11.2602 36.814C13.9477 38.3273 16.9399 39.0804 20.0195 39.0828C20.0742 39.0828 20.1289 39.0828 20.1852 39.0828C21.1797 39.0812 22.1461 39.0078 23.125 38.8289C23.1992 38.8156 23.2727 38.8023 23.3492 38.7882C26.8367 38.1351 30.0211 36.5242 32.5781 34.0632C32.6516 33.9929 32.6516 33.9929 32.7266 33.9211C35.1414 31.5992 36.7953 28.7062 37.6563 25.4695C37.6789 25.3882 37.6789 25.3882 37.7016 25.3047C38.9055 20.9343 38.1414 16.1429 36.0156 12.1882C35.5305 11.339 34.9836 10.532 34.375 9.76637C34.3203 9.69606 34.2649 9.62653 34.2086 9.55465C33.5719 8.75856 32.8953 7.99528 32.1094 7.3445C32.0375 7.28122 31.9656 7.21872 31.8922 7.15387C28.2422 3.96012 23.4063 2.36012 18.5742 2.6734C17.4524 2.76481 16.3711 2.98747 15.2805 3.25856C14.9242 3.34372 14.5852 3.42418 14.2188 3.43825C14.0031 3.27262 13.8969 3.0609 13.7734 2.82184C13.7352 2.74918 13.6977 2.67575 13.6586 2.59997C13.6195 2.52418 13.5805 2.44762 13.5399 2.36872C13.4805 2.25309 13.4805 2.25309 13.4188 2.13512C13.3203 1.9445 13.2227 1.75387 13.125 1.56325C13.0734 1.56325 13.0219 1.56325 12.9688 1.56325Z" fill="white"/>
<path d="M13.3594 0.000747058C13.582 0.172622 13.6891 0.393716 13.8164 0.63981C13.857 0.718716 13.8977 0.797622 13.9399 0.878872C13.982 0.961685 14.0242 1.04372 14.0672 1.12887C14.1313 1.25153 14.1313 1.25153 14.1961 1.37731C14.3617 1.6984 14.5266 2.02106 14.6875 2.3445C15.1 2.27106 15.5117 2.19528 15.9227 2.11403C15.9906 2.10075 16.0586 2.08668 16.1289 2.0734C16.2633 2.04684 16.3969 2.02028 16.5305 1.99293C17.6602 1.77184 18.7781 1.68981 19.9266 1.69528C19.9899 1.69528 20.0524 1.69528 20.1172 1.69528C24.4109 1.71403 28.5125 3.1945 31.875 5.86012C31.9172 5.89293 31.9594 5.92575 32.0024 5.96012C33.1984 6.90231 34.3219 8.01325 35.2172 9.24606C35.3149 9.37965 35.4164 9.51012 35.5188 9.63981C37.2852 11.9172 38.3656 14.689 38.9063 17.5007C38.9188 17.5625 38.932 17.6242 38.9453 17.6875C39.5313 20.5789 39.2031 23.764 38.3594 26.5632C38.3399 26.6273 38.3211 26.6922 38.3016 26.7586C37.7922 28.4273 37.0039 30.0476 36.0156 31.4851C35.9844 31.532 35.9524 31.5781 35.9203 31.6257C35.4484 32.3203 34.9297 32.9656 34.375 33.5945C34.3234 33.6531 34.3235 33.6531 34.2711 33.7132C31.5274 36.839 27.8094 38.8257 23.7695 39.7078C23.7164 39.7195 23.6625 39.7312 23.6078 39.7437C22.4289 39.9859 21.2484 40.0328 20.0484 40.0304C19.9734 40.0297 19.8984 40.0297 19.8211 40.0297C18.5805 40.0265 17.3875 39.9539 16.1719 39.6882C16.0945 39.6718 16.018 39.6547 15.9383 39.6375C13.0969 38.9976 10.4828 37.7445 8.20313 35.9382C8.12188 35.875 8.04063 35.8109 7.95704 35.7461C6.74063 34.7554 5.60548 33.6179 4.68751 32.3445C4.62267 32.2586 4.55782 32.1726 4.49298 32.0867C2.67188 29.6507 1.51563 26.7406 1.01563 23.7507C1.00157 23.6679 1.00157 23.6679 0.986729 23.5836C0.565635 21.0992 0.439853 17.4211 1.7672 15.1617C2.08517 14.7218 2.58751 14.3945 3.12501 14.2976C3.83282 14.2289 4.44923 14.3531 5.02423 14.7859C5.43829 15.2093 5.77423 15.7172 5.7836 16.3281C5.75235 16.7812 5.64845 17.2195 5.55157 17.6617C4.72345 21.5086 5.46017 25.4531 7.54142 28.7867C9.72579 32.1226 13.0406 34.4773 16.9531 35.3132C20.7016 36.0789 24.7438 35.3976 27.9688 33.3086C28.8125 32.7437 29.582 32.1117 30.3125 31.407C30.3828 31.3414 30.4531 31.2765 30.5258 31.2086C32.9883 28.8562 34.6078 25.2211 34.7102 21.8218C34.7164 21.5047 34.718 21.1875 34.7172 20.8695C34.7164 20.8031 34.7164 20.7359 34.7164 20.6672C34.7039 16.8195 33.2117 13.3086 30.5469 10.5476C30.4813 10.4773 30.4164 10.407 30.3484 10.3343C28.1328 8.01481 24.9406 6.61481 21.7969 6.17262C21.7453 6.16559 21.6938 6.15778 21.6406 6.14997C20.1938 5.96481 18.6984 6.05622 17.2664 6.307C17.1094 6.32887 17.1094 6.32887 16.7969 6.32887C16.825 6.38278 16.8531 6.4359 16.882 6.49137C17.0078 6.73356 17.1344 6.97575 17.2609 7.21793C17.3266 7.3445 17.3266 7.3445 17.3945 7.4734C17.4359 7.55387 17.4781 7.63434 17.5219 7.71715C17.5602 7.79215 17.5992 7.86637 17.6391 7.94293C17.7938 8.23981 17.8531 8.40934 17.8125 8.75075C17.6766 8.92731 17.6766 8.92731 17.4219 9.06325C17.0914 9.07731 16.7695 9.03122 16.4422 8.98825C16.3445 8.97653 16.2461 8.96481 16.1453 8.95309C15.8797 8.92106 15.6149 8.88825 15.35 8.85465C15.0758 8.82028 14.8016 8.78747 14.5266 8.75387C14.1953 8.71403 13.8641 8.67418 13.532 8.63278C12.8633 8.54997 12.1938 8.47262 11.5234 8.39997C11.368 8.38278 11.2117 8.36637 11.0563 8.34918C10.8399 8.32497 10.6234 8.30153 10.4078 8.27965C10.2125 8.25856 10.0164 8.23668 9.8211 8.21481C9.73751 8.20621 9.73751 8.20622 9.65157 8.19762C9.32579 8.16012 9.08985 8.09293 8.82813 7.89137C8.71017 7.59215 8.71173 7.44528 8.82501 7.1445C8.94063 6.90544 9.06563 6.6734 9.19454 6.44137C9.24063 6.35465 9.28751 6.26793 9.33517 6.17965C9.47735 5.91559 9.6211 5.65387 9.76563 5.39137C9.84454 5.24684 9.92267 5.10231 10.0008 4.95778C10.1516 4.68043 10.3031 4.40309 10.4555 4.12653C10.7149 3.65309 10.9688 3.17731 11.2227 2.70153C11.5891 2.01637 11.9555 1.33122 12.3289 0.649966C12.3766 0.563247 12.3766 0.563247 12.4242 0.474185C12.6836 0.00543457 12.8219 -0.0367529 13.3594 0.000747058ZM12.9688 1.56325C12.3688 2.68043 11.7703 3.7984 11.175 4.91715C11.118 5.0234 11.0617 5.12965 11.0047 5.2359C10.6602 5.882 10.3234 6.53122 10 7.18825C10.4633 7.29293 10.9219 7.36403 11.3938 7.41325C11.9719 7.47497 12.5492 7.5445 13.1258 7.61872C13.207 7.62887 13.2875 7.63903 13.3703 7.64997C13.7039 7.69215 14.0375 7.73512 14.3711 7.77809C14.6188 7.80934 14.8656 7.84137 15.1133 7.87262C15.1883 7.882 15.2625 7.89215 15.3399 7.90231C15.725 7.95075 16.0961 7.98043 16.4844 7.9695C16.1719 7.31715 16.1719 7.31715 15.7906 6.70465C15.6375 6.47184 15.6063 6.31481 15.6149 6.03668C15.6164 5.97418 15.618 5.91168 15.6195 5.84684C15.6211 5.79997 15.6227 5.75231 15.625 5.70387C16.1977 5.5859 16.7703 5.47106 17.3445 5.35934C17.5211 5.32418 17.6977 5.28903 17.8742 5.25231C21.6672 4.58043 25.8766 5.81793 28.9899 7.98356C29.3656 8.25075 29.7289 8.52731 30.0781 8.82887C30.1383 8.88043 30.1984 8.932 30.2602 8.98512C30.4633 9.16325 30.6617 9.34684 30.8594 9.532C30.9008 9.57028 30.9414 9.60856 30.9836 9.6484C32.0203 10.6257 32.8977 11.7242 33.5938 12.9695C33.643 13.0562 33.643 13.0562 33.693 13.1453C35.8234 16.9406 36.2008 21.2179 35.0656 25.3984C34.8969 25.9836 34.6883 26.5492 34.4531 27.1101C34.4297 27.1656 34.407 27.2211 34.3828 27.2781C33.7102 28.8625 32.7227 30.2906 31.5586 31.5523C31.4352 31.6875 31.3195 31.825 31.2063 31.9687C30.9578 32.2554 30.6805 32.4906 30.3906 32.7351C30.325 32.7929 30.2594 32.8507 30.1914 32.9109C28.65 34.2429 26.8563 35.2304 24.9219 35.8601C24.8391 35.8875 24.8391 35.8875 24.7547 35.9156C23.443 36.3461 22.0852 36.6148 20.7031 36.6414C20.6375 36.6429 20.5719 36.6445 20.5039 36.6461C19.5414 36.6672 18.607 36.6367 17.6563 36.4851C17.5945 36.4757 17.5336 36.4664 17.4703 36.457C15.2016 36.1078 12.9649 35.2461 11.0938 33.907C11.0125 33.8492 10.9313 33.7914 10.8477 33.732C10.393 33.4007 9.96798 33.0468 9.5547 32.6656C9.39376 32.5179 9.2297 32.3773 9.06251 32.2367C7.57735 30.9328 6.53751 29.1922 5.70313 27.4226C5.66173 27.3343 5.61954 27.2461 5.57657 27.1554C5.00938 25.9 4.67657 24.5593 4.45313 23.2039C4.44376 23.1476 4.43438 23.0914 4.42501 23.0343C4.12345 21.1062 4.20313 19.0445 4.6961 17.1554C4.80313 16.725 4.87188 16.2679 4.69454 15.8484C4.48907 15.5359 4.26563 15.3547 3.90626 15.2351C3.48595 15.1882 3.22813 15.2257 2.86251 15.4336C2.4586 15.7937 2.33595 16.2367 2.22188 16.7437C2.19688 16.8515 2.19688 16.8515 2.17188 16.9609C1.18673 21.4922 1.97501 26.3711 4.44845 30.3086C5.58517 32.0703 6.93438 33.7093 8.59376 35.0007C8.64298 35.0398 8.69142 35.0781 8.7422 35.1179C9.49376 35.7156 10.2539 36.2539 11.0938 36.7195C11.1484 36.7507 11.2039 36.782 11.2602 36.814C13.9477 38.3273 16.9399 39.0804 20.0195 39.0828C20.0742 39.0828 20.1289 39.0828 20.1852 39.0828C21.1797 39.0812 22.1461 39.0078 23.125 38.8289C23.1992 38.8156 23.2727 38.8023 23.3492 38.7882C26.8367 38.1351 30.0211 36.5242 32.5781 34.0632C32.6516 33.9929 32.6516 33.9929 32.7266 33.9211C35.1414 31.5992 36.7953 28.7062 37.6563 25.4695C37.6789 25.3882 37.6789 25.3882 37.7016 25.3047C38.9055 20.9343 38.1414 16.1429 36.0156 12.1882C35.5305 11.339 34.9836 10.532 34.375 9.76637C34.3203 9.69606 34.2649 9.62653 34.2086 9.55465C33.5719 8.75856 32.8953 7.99528 32.1094 7.3445C32.0375 7.28122 31.9656 7.21872 31.8922 7.15387C28.2422 3.96012 23.4063 2.36012 18.5742 2.6734C17.4524 2.76481 16.3711 2.98747 15.2805 3.25856C14.9242 3.34372 14.5852 3.42418 14.2188 3.43825C14.0031 3.27262 13.8969 3.0609 13.7734 2.82184C13.7352 2.74918 13.6977 2.67575 13.6586 2.59997C13.6195 2.52418 13.5805 2.44762 13.5399 2.36872C13.4805 2.25309 13.4805 2.25309 13.4188 2.13512C13.3203 1.9445 13.2227 1.75387 13.125 1.56325C13.0734 1.56325 13.0219 1.56325 12.9688 1.56325Z" fill="white" fill-opacity="0.2"/>
<path d="M22.7343 11.3279C22.8257 11.356 22.8257 11.356 22.9195 11.385C25.1835 12.106 27.0742 13.5459 28.3593 15.5467C28.4148 15.6326 28.4703 15.7185 28.5273 15.8068C28.9726 16.5396 29.2765 17.3076 29.5312 18.1248C29.5492 18.181 29.5663 18.2373 29.5851 18.2959C30.0421 19.824 30.0507 21.8318 29.6093 23.3592C29.5867 23.4404 29.5867 23.4404 29.5632 23.524C28.8288 26.1224 27.1031 28.2545 24.7554 29.5779C24.032 29.9701 23.2913 30.249 22.4999 30.4685C22.4078 30.4951 22.3163 30.5217 22.221 30.549C19.6265 31.1646 16.8593 30.5787 14.6093 29.2185C12.3617 27.7334 10.8328 25.4693 10.2687 22.8412C10.1445 22.1881 10.1281 21.5412 10.132 20.8787C10.132 20.8232 10.132 20.7678 10.132 20.7107C10.1359 19.9053 10.1648 19.1396 10.3906 18.3592C10.4132 18.2779 10.4132 18.2779 10.4367 18.1943C11.1663 15.6131 12.8671 13.4904 15.2038 12.1771C17.4288 10.9607 20.2882 10.5592 22.7343 11.3279ZM13.3156 14.9045C11.582 16.9146 10.9749 19.1881 11.0937 21.7967C11.2898 24.1076 12.5429 26.249 14.2773 27.7435C16.2617 29.349 18.6015 29.9701 21.1218 29.749C23.482 29.4607 25.5984 28.1756 27.0796 26.3404C28.5648 24.3701 29.1507 21.9928 28.8703 19.5506C28.5249 17.1592 27.1492 15.0373 25.2343 13.5935C21.4671 10.9631 16.4226 11.5365 13.3156 14.9045Z" fill="white"/>
<path d="M20.3125 13.5929C20.4664 13.8218 20.4867 14.0046 20.4781 14.2765C20.4774 14.339 20.4758 14.4015 20.4742 14.4656C20.4727 14.5132 20.4703 14.5601 20.4688 14.6085C20.5688 14.6265 20.6688 14.6437 20.7719 14.6624C21.6016 14.8531 22.2008 15.2726 22.7344 15.9367C23.1391 16.5937 23.4805 17.3367 23.3594 18.1242C23.2328 18.3288 23.2328 18.3288 23.0469 18.4367C22.8031 18.432 22.8031 18.432 22.5781 18.3585C22.4094 18.1054 22.393 17.9804 22.3586 17.6851C22.2571 17.0304 21.9969 16.5218 21.4844 16.0929C21.1539 15.8624 20.8453 15.6968 20.4688 15.546C20.4688 17.1702 20.4688 18.7945 20.4688 20.4679C20.7008 20.5195 20.9328 20.571 21.1719 20.6242C22 20.9101 22.6094 21.5085 23.0078 22.2796C23.4422 23.2452 23.4852 24.1507 23.125 25.1554C22.7594 25.9531 22.1696 26.5937 21.368 26.9578C21.0711 27.0679 20.7797 27.1312 20.4688 27.1867C20.4727 27.2335 20.4758 27.2812 20.4797 27.3296C20.5024 27.8351 20.5024 27.8351 20.3422 28.0945C20.1563 28.2023 20.1563 28.2023 19.9125 28.2023C19.6875 28.1242 19.6875 28.1242 19.5797 28.0023C19.5094 27.7257 19.5219 27.4718 19.5313 27.1867C19.3813 27.1601 19.3813 27.1601 19.2281 27.1327C18.3172 26.9234 17.6188 26.4195 17.118 25.6242C16.7977 25.0156 16.5586 24.3687 16.6406 23.671C16.7672 23.4757 16.7672 23.4757 16.9531 23.3585C17.1969 23.3632 17.1969 23.3632 17.4219 23.4367C17.5906 23.6898 17.6071 23.8148 17.6414 24.1101C17.7672 24.9062 18.1071 25.3835 18.75 25.8585C19.0078 25.9617 19.2656 26.0648 19.5313 26.171C19.5313 24.5726 19.5313 22.9742 19.5313 21.3273C19.2992 21.2757 19.0672 21.2242 18.8281 21.171C18.0039 20.8867 17.3938 20.2898 16.9922 19.5257C16.5727 18.5952 16.4938 17.6718 16.8547 16.7038C17.2211 15.8827 17.8086 15.2179 18.6297 14.8398C18.9266 14.7273 19.2188 14.664 19.5313 14.6085C19.5297 14.5617 19.5274 14.514 19.5258 14.4656C19.5242 14.4031 19.5227 14.3406 19.5219 14.2765C19.5196 14.2148 19.518 14.1531 19.5156 14.0898C19.5328 13.8859 19.5789 13.7648 19.6875 13.5929C19.9188 13.4773 20.068 13.5265 20.3125 13.5929Z" fill="white"/>
<path d="M19.5312 15.5469C19.5312 17.1453 19.5312 18.7438 19.5312 20.3906C18.8304 20.2742 18.3742 19.925 17.925 19.3813C17.5671 18.8641 17.4265 18.2 17.5 17.5781C17.7109 16.7078 18.1632 16.1891 18.9046 15.7133C19.1234 15.5906 19.2796 15.5469 19.5312 15.5469Z" fill="#FF9A7A"/>
<path d="M20.1923 21.5391C20.9798 21.7359 21.4696 21.9805 21.8938 22.6828C22.2212 23.3164 22.3157 23.8875 22.136 24.5812C21.9196 25.232 21.5884 25.6789 21.0157 26.0555C20.8173 26.1484 20.8173 26.1484 20.1923 26.3047C20.1923 24.732 20.1923 23.1594 20.1923 21.5391Z" fill="#FF9A7A"/>
</g>
<defs>
<clipPath id="clip0_389_3241">
<rect width="40" height="40" fill="white"/>
</clipPath>
</defs>
</svg>
