<svg width="41" height="38" viewBox="0 0 41 38" fill="none" xmlns="http://www.w3.org/2000/svg">
<path fill-rule="evenodd" clip-rule="evenodd" d="M30.5501 0.13162C29.3084 0.26388 29.0316 0.367105 28.6146 0.853279C28.0497 1.51165 28.0505 2.411 28.6164 3.13797L28.8931 3.49326L27.2015 5.20155C24.7538 7.67364 22.5351 9.52253 19.8974 11.2885C15.1597 14.4603 9.79748 16.7204 4.44298 17.8022C2.26518 18.2422 2.10678 18.2866 1.76403 18.5541C1.2243 18.9755 0.973093 19.9028 1.2183 20.5685C1.34717 20.9182 1.82103 21.4159 2.17202 21.57C2.57751 21.7481 2.99777 21.729 4.36539 21.4704C8.54772 20.6799 13.0266 19.134 16.9308 17.1334C21.8077 14.6345 25.7026 11.7463 29.7294 7.64268L31.5325 5.80515L31.8772 6.01499C32.1576 6.18563 32.3243 6.21906 32.7706 6.19451C33.3998 6.1598 33.8068 5.92788 34.1541 5.40608C34.3658 5.08798 34.3694 5.04924 34.3492 3.29798C34.3266 1.35264 34.2727 1.059 33.8471 0.562839C33.3246 -0.046161 32.8289 -0.111009 30.5501 0.13162ZM32.7677 1.56065C32.8029 1.61899 32.8615 2.30933 32.8979 3.09483C32.9476 4.17031 32.9371 4.55198 32.8549 4.64073C32.6864 4.82291 32.4691 4.67957 32.408 4.34589C32.3339 3.94188 32.0629 3.70768 31.6696 3.70768C31.4101 3.70768 31.2903 3.77591 31.0343 4.06947C26.6081 9.14407 21.8508 12.9225 16.3276 15.7503C12.5271 17.696 8.8162 18.9974 4.57596 19.8716C3.06865 20.1823 2.77439 20.2197 2.67094 20.114C2.3945 19.831 2.6262 19.7133 3.96939 19.4539C12.6423 17.7795 20.8698 13.4825 27.194 7.32422C28.6732 5.88383 30.7491 3.64127 30.9017 3.31896C31.143 2.80888 30.8298 2.2748 30.2836 2.26491C29.8379 2.25676 29.6714 2.18467 29.6714 1.99947C29.6714 1.75409 29.7202 1.74054 31.1109 1.59949C32.7008 1.43819 32.6938 1.43828 32.7677 1.56065ZM31.681 9.64792L31.4612 9.87269V22.1961V34.5195H30.0294H28.5975V24.8077C28.5975 16.6174 28.5775 15.047 28.4702 14.7841C28.2706 14.2951 28.0281 14.2605 25.0323 14.294L22.4068 14.3233L22.1909 14.5803L21.9751 14.8373V24.6784V34.5195H20.5448H19.1145L19.0905 27.3777L19.0666 20.236L18.8627 20.0274C18.6591 19.819 18.6561 19.8188 15.7899 19.8188H12.9209L12.7048 20.0758L12.4889 20.3329V27.4262V34.5195H11.057H9.62512V30.1184C9.62512 25.4808 9.61 25.2961 9.21838 25.1423C9.02928 25.068 3.59853 25.068 3.40943 25.1423C3.01781 25.2961 3.00269 25.4808 3.00269 30.1184V34.5195H2.02329C1.11726 34.5195 1.025 34.5361 0.792766 34.7403C0.544067 34.959 0.541382 34.9728 0.512655 36.1907C0.483838 37.4082 0.485897 37.4231 0.721888 37.7101L0.960296 38H20.4943H40.0284L40.2642 37.8101C40.4993 37.6209 40.5 37.6166 40.5 36.309C40.5 34.5468 40.5228 34.5761 39.1222 34.5345L38.0862 34.5038L38.0626 22.1998L38.0389 9.89577L37.822 9.65937L37.605 9.42306H34.7528H31.9006L31.681 9.64792ZM36.5623 22.704V34.5195H34.7277H32.8931V22.704V10.8885H34.7277H36.5623V22.704ZM27.0761 25.177V34.5195H25.2863H23.4964V25.177V15.8346H25.2863H27.0761V25.177ZM17.5899 27.9248V34.5195H15.8001H14.0102V27.9248V21.3301H15.8001H17.5899V27.9248ZM8.10375 30.5352V34.5195H6.31391H4.52406V30.5352V26.5509H6.31391H8.10375V30.5352ZM39.0681 36.3055V36.5345H20.5432H2.01827V36.3055V36.0766H20.5432H39.0681V36.3055Z" fill="white"/>
</svg>
