<svg width="59" height="32" viewBox="0 0 59 32" fill="none" xmlns="http://www.w3.org/2000/svg">
<g clip-path="url(#clip0_524_2197)">
<path d="M15 7V25C15 25.5304 15.2258 26.0391 15.6276 26.4142C16.0295 26.7893 16.5745 27 17.1429 27H42.8571C43.4255 27 43.9705 26.7893 44.3724 26.4142C44.7742 26.0391 45 25.5304 45 25V9C45 8.46957 44.7742 7.96086 44.3724 7.58579C43.9705 7.21071 43.4255 7 42.8571 7H20.3571M15 7V5C15 4.46957 15.2258 3.96086 15.6276 3.58579C16.0295 3.21071 16.5745 3 17.1429 3H34.2857C34.854 3 35.3991 3.21071 35.8009 3.58579C36.2028 3.96086 36.4286 4.46957 36.4286 5V7H20.3571M15 7H20.3571M33.2143 19H39.6429" stroke="#16A6B7" stroke-width="2"/>
</g>
<defs>
<clipPath id="clip0_524_2197">
<rect width="32" height="32" fill="white" transform="translate(13.5)"/>
</clipPath>
</defs>
</svg>
